{
	"patcher" : 	{
		"fileversion" : 1,
		"appversion" : 		{
			"major" : 8,
			"minor" : 1,
			"revision" : 1,
			"architecture" : "x64",
			"modernui" : 1
		}
,
		"classnamespace" : "box",
		"rect" : [ 0.0, 0.0, 640.0, 480.0 ],
		"bglocked" : 0,
		"openinpresentation" : 1,
		"default_fontsize" : 12.0,
		"default_fontface" : 0,
		"default_fontname" : "Arial",
		"gridonopen" : 1,
		"gridsize" : [ 15.0, 15.0 ],
		"gridsnaponopen" : 1,
		"objectsnaponopen" : 1,
		"statusbarvisible" : 2,
		"toolbarvisible" : 1,
		"lefttoolbarpinned" : 0,
		"toptoolbarpinned" : 0,
		"righttoolbarpinned" : 0,
		"bottomtoolbarpinned" : 0,
		"toolbars_unpinned_last_save" : 0,
		"tallnewobj" : 0,
		"boxanimatetime" : 200,
		"enablehscroll" : 1,
		"enablevscroll" : 1,
		"devicewidth" : 0.0,
		"description" : "",
		"digest" : "",
		"tags" : "abstraction",
		"style" : "",
		"subpatcher_template" : "",
		"boxes" : [ 			{
				"box" : 				{
					"id" : "obj-16",
					"maxclass" : "comment",
					"numinlets" : 1,
					"numoutlets" : 0,
					"patching_rect" : [ 1547.0, 93.0, 150.0, 20.0 ],
					"text" : "max - OSC translation"
				}

			}
, 			{
				"box" : 				{
					"id" : "obj-5",
					"maxclass" : "newobj",
					"numinlets" : 2,
					"numoutlets" : 1,
					"outlettype" : [ "" ],
					"patching_rect" : [ 1036.879036843648464, 162.0, 55.0, 22.0 ],
					"text" : "pipe 100"
				}

			}
, 			{
				"box" : 				{
					"id" : "obj-80",
					"maxclass" : "newobj",
					"numinlets" : 1,
					"numoutlets" : 1,
					"outlettype" : [ "bang" ],
					"patching_rect" : [ 1467.632825732721585, 779.352160751819611, 52.0, 22.0 ],
					"text" : "Visshort"
				}

			}
, 			{
				"box" : 				{
					"id" : "obj-81",
					"maxclass" : "newobj",
					"numinlets" : 1,
					"numoutlets" : 1,
					"outlettype" : [ "bang" ],
					"patching_rect" : [ 1298.632825732721813, 779.352160751819611, 52.0, 22.0 ],
					"text" : "Visshort"
				}

			}
, 			{
				"box" : 				{
					"id" : "obj-83",
					"maxclass" : "newobj",
					"numinlets" : 1,
					"numoutlets" : 1,
					"outlettype" : [ "bang" ],
					"patching_rect" : [ 1130.632825732721813, 779.352160751819611, 52.0, 22.0 ],
					"text" : "Visshort"
				}

			}
, 			{
				"box" : 				{
					"id" : "obj-84",
					"maxclass" : "newobj",
					"numinlets" : 1,
					"numoutlets" : 1,
					"outlettype" : [ "bang" ],
					"patching_rect" : [ 953.632825732721699, 779.352160751819611, 52.0, 22.0 ],
					"text" : "Visshort"
				}

			}
, 			{
				"box" : 				{
					"id" : "obj-76",
					"maxclass" : "newobj",
					"numinlets" : 1,
					"numoutlets" : 1,
					"outlettype" : [ "bang" ],
					"patching_rect" : [ 1366.42731812101033, 657.352160751819611, 52.0, 22.0 ],
					"text" : "Visshort"
				}

			}
, 			{
				"box" : 				{
					"id" : "obj-77",
					"maxclass" : "newobj",
					"numinlets" : 1,
					"numoutlets" : 1,
					"outlettype" : [ "bang" ],
					"patching_rect" : [ 1197.427318121010558, 657.352160751819611, 52.0, 22.0 ],
					"text" : "Visshort"
				}

			}
, 			{
				"box" : 				{
					"id" : "obj-78",
					"maxclass" : "newobj",
					"numinlets" : 1,
					"numoutlets" : 1,
					"outlettype" : [ "bang" ],
					"patching_rect" : [ 1029.427318121010558, 657.352160751819611, 52.0, 22.0 ],
					"text" : "Visshort"
				}

			}
, 			{
				"box" : 				{
					"id" : "obj-79",
					"maxclass" : "newobj",
					"numinlets" : 1,
					"numoutlets" : 1,
					"outlettype" : [ "bang" ],
					"patching_rect" : [ 852.427318121010444, 652.352160751819611, 52.0, 22.0 ],
					"text" : "Visshort"
				}

			}
, 			{
				"box" : 				{
					"id" : "obj-75",
					"maxclass" : "newobj",
					"numinlets" : 1,
					"numoutlets" : 1,
					"outlettype" : [ "bang" ],
					"patching_rect" : [ 1358.0, 530.291018806903139, 52.0, 22.0 ],
					"text" : "Visshort"
				}

			}
, 			{
				"box" : 				{
					"id" : "obj-74",
					"maxclass" : "newobj",
					"numinlets" : 1,
					"numoutlets" : 1,
					"outlettype" : [ "bang" ],
					"patching_rect" : [ 1182.0, 530.291018806903139, 52.0, 22.0 ],
					"text" : "Visshort"
				}

			}
, 			{
				"box" : 				{
					"id" : "obj-67",
					"maxclass" : "newobj",
					"numinlets" : 1,
					"numoutlets" : 1,
					"outlettype" : [ "bang" ],
					"patching_rect" : [ 1015.0, 530.291018806903139, 52.0, 22.0 ],
					"text" : "Visshort"
				}

			}
, 			{
				"box" : 				{
					"id" : "obj-66",
					"maxclass" : "newobj",
					"numinlets" : 1,
					"numoutlets" : 1,
					"outlettype" : [ "bang" ],
					"patching_rect" : [ 821.91566985969348, 530.291018806903139, 52.0, 22.0 ],
					"text" : "Visshort"
				}

			}
, 			{
				"box" : 				{
					"id" : "obj-73",
					"maxclass" : "newobj",
					"numinlets" : 14,
					"numoutlets" : 14,
					"outlettype" : [ "float", "float", "float", "float", "", "", "float", "float", "float", "float", "float", "float", "FullPacket", "FullPacket" ],
					"patching_rect" : [ 1580.5, 132.356377000000009, 155.5, 22.0 ],
					"text" : "eqosc"
				}

			}
, 			{
				"box" : 				{
					"id" : "obj-72",
					"maxclass" : "newobj",
					"numinlets" : 12,
					"numoutlets" : 1,
					"outlettype" : [ "" ],
					"patching_rect" : [ 1606.0, 433.0, 134.5, 22.0 ],
					"text" : "eqsection"
				}

			}
, 			{
				"box" : 				{
					"id" : "obj-71",
					"maxclass" : "newobj",
					"numinlets" : 2,
					"numoutlets" : 2,
					"outlettype" : [ "", "" ],
					"patching_rect" : [ 1763.5, 151.0, 55.0, 22.0 ],
					"text" : "eqbank3"
				}

			}
, 			{
				"box" : 				{
					"id" : "obj-68",
					"maxclass" : "newobj",
					"numinlets" : 2,
					"numoutlets" : 2,
					"outlettype" : [ "", "" ],
					"patching_rect" : [ 1763.5, 111.0, 55.0, 22.0 ],
					"text" : "eqbank2"
				}

			}
, 			{
				"box" : 				{
					"id" : "obj-64",
					"maxclass" : "newobj",
					"numinlets" : 1,
					"numoutlets" : 1,
					"outlettype" : [ "" ],
					"patching_rect" : [ 1036.879036843648464, 132.356377000000009, 70.0, 22.0 ],
					"text" : "loadmess 0"
				}

			}
, 			{
				"box" : 				{
					"id" : "obj-61",
					"maxclass" : "newobj",
					"numinlets" : 1,
					"numoutlets" : 1,
					"outlettype" : [ "int" ],
					"patching_rect" : [ 1197.446956394865083, 873.0, 22.0, 22.0 ],
					"text" : "t 8"
				}

			}
, 			{
				"box" : 				{
					"id" : "obj-63",
					"maxclass" : "newobj",
					"numinlets" : 1,
					"numoutlets" : 0,
					"patching_rect" : [ 1197.446956394865083, 901.0, 51.0, 22.0 ],
					"text" : "s itemnr"
				}

			}
, 			{
				"box" : 				{
					"id" : "obj-7",
					"maxclass" : "newobj",
					"numinlets" : 1,
					"numoutlets" : 1,
					"outlettype" : [ "int" ],
					"patching_rect" : [ 1139.531286535171603, 873.0, 22.0, 22.0 ],
					"text" : "t 7"
				}

			}
, 			{
				"box" : 				{
					"id" : "obj-8",
					"maxclass" : "newobj",
					"numinlets" : 1,
					"numoutlets" : 0,
					"patching_rect" : [ 1139.531286535171603, 901.0, 51.0, 22.0 ],
					"text" : "s itemnr"
				}

			}
, 			{
				"box" : 				{
					"id" : "obj-1",
					"maxclass" : "newobj",
					"numinlets" : 1,
					"numoutlets" : 1,
					"outlettype" : [ "int" ],
					"patching_rect" : [ 1082.531286535171603, 873.0, 22.0, 22.0 ],
					"text" : "t 6"
				}

			}
, 			{
				"box" : 				{
					"id" : "obj-4",
					"maxclass" : "newobj",
					"numinlets" : 1,
					"numoutlets" : 0,
					"patching_rect" : [ 1082.531286535171603, 901.0, 51.0, 22.0 ],
					"text" : "s itemnr"
				}

			}
, 			{
				"box" : 				{
					"comment" : "OSC Out",
					"id" : "obj-62",
					"index" : 3,
					"maxclass" : "outlet",
					"numinlets" : 1,
					"numoutlets" : 0,
					"patching_rect" : [ 1763.5, 332.300229281633278, 30.0, 30.0 ]
				}

			}
, 			{
				"box" : 				{
					"comment" : "OSC  In",
					"id" : "obj-60",
					"index" : 2,
					"maxclass" : "inlet",
					"numinlets" : 0,
					"numoutlets" : 1,
					"outlettype" : [ "FullPacket" ],
					"patching_rect" : [ 1799.5, 21.963097274303436, 30.0, 30.0 ]
				}

			}
, 			{
				"box" : 				{
					"id" : "obj-44",
					"maxclass" : "toggle",
					"numinlets" : 1,
					"numoutlets" : 1,
					"outlettype" : [ "int" ],
					"parameter_enable" : 1,
					"patching_rect" : [ 1467.632825732721585, 806.352160751819611, 24.0, 24.0 ],
					"saved_attribute_attributes" : 					{
						"valueof" : 						{
							"parameter_shortname" : "toggle[8]",
							"parameter_enum" : [ "off", "on" ],
							"parameter_type" : 2,
							"parameter_longname" : "toggle[8]",
							"parameter_initial_enable" : 1,
							"parameter_mmax" : 1,
							"parameter_initial" : [ 0.0 ]
						}

					}
,
					"varname" : "toggle"
				}

			}
, 			{
				"box" : 				{
					"attr" : "presentation",
					"id" : "obj-45",
					"maxclass" : "attrui",
					"numinlets" : 1,
					"numoutlets" : 1,
					"outlettype" : [ "" ],
					"patching_rect" : [ 1467.770034612462723, 836.409838394966528, 150.0, 22.0 ]
				}

			}
, 			{
				"box" : 				{
					"id" : "obj-47",
					"maxclass" : "toggle",
					"numinlets" : 1,
					"numoutlets" : 1,
					"outlettype" : [ "int" ],
					"parameter_enable" : 1,
					"patching_rect" : [ 1298.632825732721813, 806.352160751819611, 24.0, 24.0 ],
					"saved_attribute_attributes" : 					{
						"valueof" : 						{
							"parameter_shortname" : "toggle[9]",
							"parameter_enum" : [ "off", "on" ],
							"parameter_type" : 2,
							"parameter_longname" : "toggle[9]",
							"parameter_initial_enable" : 1,
							"parameter_mmax" : 1,
							"parameter_initial" : [ 0.0 ]
						}

					}
,
					"varname" : "toggle[1]"
				}

			}
, 			{
				"box" : 				{
					"attr" : "presentation",
					"id" : "obj-48",
					"maxclass" : "attrui",
					"numinlets" : 1,
					"numoutlets" : 1,
					"outlettype" : [ "" ],
					"patching_rect" : [ 1298.77003461246295, 836.409838394966528, 150.0, 22.0 ]
				}

			}
, 			{
				"box" : 				{
					"id" : "obj-50",
					"maxclass" : "toggle",
					"numinlets" : 1,
					"numoutlets" : 1,
					"outlettype" : [ "int" ],
					"parameter_enable" : 1,
					"patching_rect" : [ 1130.632825732721813, 810.352160751819611, 24.0, 24.0 ],
					"saved_attribute_attributes" : 					{
						"valueof" : 						{
							"parameter_shortname" : "toggle[10]",
							"parameter_enum" : [ "off", "on" ],
							"parameter_type" : 2,
							"parameter_longname" : "toggle[10]",
							"parameter_initial_enable" : 1,
							"parameter_mmax" : 1,
							"parameter_initial" : [ 0.0 ]
						}

					}
,
					"varname" : "toggle[2]"
				}

			}
, 			{
				"box" : 				{
					"attr" : "presentation",
					"id" : "obj-51",
					"maxclass" : "attrui",
					"numinlets" : 1,
					"numoutlets" : 1,
					"outlettype" : [ "" ],
					"patching_rect" : [ 1130.77003461246295, 840.409838394966528, 150.0, 22.0 ]
				}

			}
, 			{
				"box" : 				{
					"id" : "obj-53",
					"maxclass" : "toggle",
					"numinlets" : 1,
					"numoutlets" : 1,
					"outlettype" : [ "int" ],
					"parameter_enable" : 1,
					"patching_rect" : [ 953.632825732721699, 806.352160751819611, 24.0, 24.0 ],
					"saved_attribute_attributes" : 					{
						"valueof" : 						{
							"parameter_shortname" : "toggle[11]",
							"parameter_enum" : [ "off", "on" ],
							"parameter_type" : 2,
							"parameter_longname" : "toggle[11]",
							"parameter_initial_enable" : 1,
							"parameter_mmax" : 1,
							"parameter_initial" : [ 0.0 ]
						}

					}
,
					"varname" : "toggle[3]"
				}

			}
, 			{
				"box" : 				{
					"attr" : "presentation",
					"id" : "obj-54",
					"maxclass" : "attrui",
					"numinlets" : 1,
					"numoutlets" : 1,
					"outlettype" : [ "" ],
					"patching_rect" : [ 953.770034612462837, 836.409838394966528, 150.0, 22.0 ]
				}

			}
, 			{
				"box" : 				{
					"id" : "obj-40",
					"maxclass" : "toggle",
					"numinlets" : 1,
					"numoutlets" : 1,
					"outlettype" : [ "int" ],
					"parameter_enable" : 1,
					"patching_rect" : [ 1366.42731812101033, 690.352160751819611, 24.0, 24.0 ],
					"saved_attribute_attributes" : 					{
						"valueof" : 						{
							"parameter_shortname" : "toggle[15]",
							"parameter_enum" : [ "off", "on" ],
							"parameter_type" : 2,
							"parameter_longname" : "toggle[15]",
							"parameter_initial_enable" : 1,
							"parameter_mmax" : 1,
							"parameter_initial" : [ 0.0 ]
						}

					}
,
					"varname" : "toggle[7]"
				}

			}
, 			{
				"box" : 				{
					"attr" : "presentation",
					"id" : "obj-41",
					"maxclass" : "attrui",
					"numinlets" : 1,
					"numoutlets" : 1,
					"outlettype" : [ "" ],
					"patching_rect" : [ 1366.564527000751468, 720.409838394966528, 150.0, 22.0 ]
				}

			}
, 			{
				"box" : 				{
					"id" : "obj-36",
					"maxclass" : "toggle",
					"numinlets" : 1,
					"numoutlets" : 1,
					"outlettype" : [ "int" ],
					"parameter_enable" : 1,
					"patching_rect" : [ 1197.427318121010558, 690.352160751819611, 24.0, 24.0 ],
					"saved_attribute_attributes" : 					{
						"valueof" : 						{
							"parameter_shortname" : "toggle[14]",
							"parameter_enum" : [ "off", "on" ],
							"parameter_type" : 2,
							"parameter_longname" : "toggle[14]",
							"parameter_initial_enable" : 1,
							"parameter_mmax" : 1,
							"parameter_initial" : [ 0.0 ]
						}

					}
,
					"varname" : "toggle[6]"
				}

			}
, 			{
				"box" : 				{
					"attr" : "presentation",
					"id" : "obj-37",
					"maxclass" : "attrui",
					"numinlets" : 1,
					"numoutlets" : 1,
					"outlettype" : [ "" ],
					"patching_rect" : [ 1197.564527000751696, 720.409838394966528, 150.0, 22.0 ]
				}

			}
, 			{
				"box" : 				{
					"id" : "obj-31",
					"maxclass" : "toggle",
					"numinlets" : 1,
					"numoutlets" : 1,
					"outlettype" : [ "int" ],
					"parameter_enable" : 1,
					"patching_rect" : [ 1029.427318121010558, 694.352160751819611, 24.0, 24.0 ],
					"saved_attribute_attributes" : 					{
						"valueof" : 						{
							"parameter_shortname" : "toggle[13]",
							"parameter_enum" : [ "off", "on" ],
							"parameter_type" : 2,
							"parameter_longname" : "toggle[13]",
							"parameter_initial_enable" : 1,
							"parameter_mmax" : 1,
							"parameter_initial" : [ 0.0 ]
						}

					}
,
					"varname" : "toggle[5]"
				}

			}
, 			{
				"box" : 				{
					"attr" : "presentation",
					"id" : "obj-32",
					"maxclass" : "attrui",
					"numinlets" : 1,
					"numoutlets" : 1,
					"outlettype" : [ "" ],
					"patching_rect" : [ 1029.564527000751696, 724.409838394966528, 150.0, 22.0 ]
				}

			}
, 			{
				"box" : 				{
					"id" : "obj-11",
					"maxclass" : "toggle",
					"numinlets" : 1,
					"numoutlets" : 1,
					"outlettype" : [ "int" ],
					"parameter_enable" : 1,
					"patching_rect" : [ 852.427318121010444, 685.352160751819611, 24.0, 24.0 ],
					"saved_attribute_attributes" : 					{
						"valueof" : 						{
							"parameter_shortname" : "toggle[12]",
							"parameter_enum" : [ "off", "on" ],
							"parameter_type" : 2,
							"parameter_longname" : "toggle[12]",
							"parameter_initial_enable" : 1,
							"parameter_mmax" : 1,
							"parameter_initial" : [ 0.0 ]
						}

					}
,
					"varname" : "toggle[4]"
				}

			}
, 			{
				"box" : 				{
					"attr" : "presentation",
					"id" : "obj-19",
					"maxclass" : "attrui",
					"numinlets" : 1,
					"numoutlets" : 1,
					"outlettype" : [ "" ],
					"patching_rect" : [ 852.564527000751582, 720.409838394966528, 150.0, 22.0 ]
				}

			}
, 			{
				"box" : 				{
					"id" : "obj-29",
					"maxclass" : "toggle",
					"numinlets" : 1,
					"numoutlets" : 1,
					"outlettype" : [ "int" ],
					"parameter_enable" : 1,
					"patching_rect" : [ 1358.0, 557.510287188498751, 24.0, 24.0 ],
					"saved_attribute_attributes" : 					{
						"valueof" : 						{
							"parameter_shortname" : "toggle[19]",
							"parameter_enum" : [ "off", "on" ],
							"parameter_type" : 2,
							"parameter_longname" : "toggle[19]",
							"parameter_initial_enable" : 1,
							"parameter_mmax" : 1,
							"parameter_initial" : [ 0.0 ]
						}

					}
,
					"varname" : "toggle[11]"
				}

			}
, 			{
				"box" : 				{
					"id" : "obj-20",
					"maxclass" : "toggle",
					"numinlets" : 1,
					"numoutlets" : 1,
					"outlettype" : [ "int" ],
					"parameter_enable" : 1,
					"patching_rect" : [ 1182.0, 554.510287188498751, 24.0, 24.0 ],
					"saved_attribute_attributes" : 					{
						"valueof" : 						{
							"parameter_shortname" : "toggle[18]",
							"parameter_enum" : [ "off", "on" ],
							"parameter_type" : 2,
							"parameter_longname" : "toggle[18]",
							"parameter_initial_enable" : 1,
							"parameter_mmax" : 1,
							"parameter_initial" : [ 0.0 ]
						}

					}
,
					"varname" : "toggle[10]"
				}

			}
, 			{
				"box" : 				{
					"id" : "obj-18",
					"maxclass" : "toggle",
					"numinlets" : 1,
					"numoutlets" : 1,
					"outlettype" : [ "int" ],
					"parameter_enable" : 1,
					"patching_rect" : [ 1015.0, 555.510287188498751, 24.0, 24.0 ],
					"saved_attribute_attributes" : 					{
						"valueof" : 						{
							"parameter_shortname" : "toggle[17]",
							"parameter_enum" : [ "off", "on" ],
							"parameter_type" : 2,
							"parameter_longname" : "toggle[17]",
							"parameter_initial_enable" : 1,
							"parameter_mmax" : 1,
							"parameter_initial" : [ 0.0 ]
						}

					}
,
					"varname" : "toggle[9]"
				}

			}
, 			{
				"box" : 				{
					"id" : "obj-9",
					"maxclass" : "toggle",
					"numinlets" : 1,
					"numoutlets" : 1,
					"outlettype" : [ "int" ],
					"parameter_enable" : 1,
					"patching_rect" : [ 821.91566985969348, 563.862447940318361, 24.0, 24.0 ],
					"saved_attribute_attributes" : 					{
						"valueof" : 						{
							"parameter_shortname" : "toggle[16]",
							"parameter_enum" : [ "off", "on" ],
							"parameter_type" : 2,
							"parameter_longname" : "toggle[16]",
							"parameter_initial_enable" : 1,
							"parameter_mmax" : 1,
							"parameter_initial" : [ 0.0 ]
						}

					}
,
					"varname" : "toggle[8]"
				}

			}
, 			{
				"box" : 				{
					"attr" : "presentation",
					"id" : "obj-25",
					"maxclass" : "attrui",
					"numinlets" : 1,
					"numoutlets" : 1,
					"outlettype" : [ "" ],
					"patching_rect" : [ 1357.689676463603973, 582.920125583465278, 150.0, 22.0 ]
				}

			}
, 			{
				"box" : 				{
					"attr" : "presentation",
					"id" : "obj-21",
					"maxclass" : "attrui",
					"numinlets" : 1,
					"numoutlets" : 1,
					"outlettype" : [ "" ],
					"patching_rect" : [ 1181.95453417301178, 582.920125583465278, 150.0, 22.0 ]
				}

			}
, 			{
				"box" : 				{
					"attr" : "presentation",
					"id" : "obj-15",
					"maxclass" : "attrui",
					"numinlets" : 1,
					"numoutlets" : 1,
					"outlettype" : [ "" ],
					"patching_rect" : [ 1014.233330607414246, 582.920125583465278, 150.0, 22.0 ]
				}

			}
, 			{
				"box" : 				{
					"attr" : "presentation",
					"id" : "obj-14",
					"maxclass" : "attrui",
					"numinlets" : 1,
					"numoutlets" : 1,
					"outlettype" : [ "" ],
					"patching_rect" : [ 822.052878739434618, 593.920125583465278, 150.0, 22.0 ]
				}

			}
, 			{
				"box" : 				{
					"comment" : "Outlet for Presentation",
					"id" : "obj-3",
					"index" : 2,
					"maxclass" : "outlet",
					"numinlets" : 1,
					"numoutlets" : 0,
					"patching_rect" : [ 505.0, 593.920125583465278, 30.0, 30.0 ]
				}

			}
, 			{
				"box" : 				{
					"comment" : "Sig In",
					"id" : "obj-23",
					"index" : 1,
					"maxclass" : "inlet",
					"numinlets" : 0,
					"numoutlets" : 1,
					"outlettype" : [ "signal" ],
					"patching_rect" : [ 140.818171501159668, 5.849131, 30.0, 30.0 ]
				}

			}
, 			{
				"box" : 				{
					"id" : "obj-65",
					"maxclass" : "newobj",
					"numinlets" : 2,
					"numoutlets" : 1,
					"outlettype" : [ "signal" ],
					"patching_rect" : [ 140.818171501159668, 552.354356467723846, 60.0, 22.0 ],
					"text" : "cascade~"
				}

			}
, 			{
				"box" : 				{
					"id" : "obj-13",
					"maxclass" : "comment",
					"numinlets" : 1,
					"numoutlets" : 0,
					"patching_rect" : [ 1634.95453417301178, 459.045450329780579, 150.0, 20.0 ],
					"text" : "filtergraphs are in here!"
				}

			}
, 			{
				"box" : 				{
					"id" : "obj-6",
					"maxclass" : "comment",
					"numinlets" : 1,
					"numoutlets" : 0,
					"patching_rect" : [ 1497.727258443832397, 294.31817901134491, 150.0, 20.0 ],
					"text" : "encoders for display"
				}

			}
, 			{
				"box" : 				{
					"comment" : "Sig Filter Out",
					"id" : "obj-2",
					"index" : 1,
					"maxclass" : "outlet",
					"numinlets" : 1,
					"numoutlets" : 0,
					"patching_rect" : [ 140.818171501159668, 593.920125583465278, 30.0, 30.0 ]
				}

			}
, 			{
				"box" : 				{
					"attr" : "activedialcolor",
					"id" : "obj-244",
					"maxclass" : "attrui",
					"numinlets" : 1,
					"numoutlets" : 1,
					"outlettype" : [ "" ],
					"patching_rect" : [ 1315.000356674194336, 251.635325617933233, 150.0, 22.0 ]
				}

			}
, 			{
				"box" : 				{
					"attr" : "activedialcolor",
					"id" : "obj-243",
					"maxclass" : "attrui",
					"numinlets" : 1,
					"numoutlets" : 1,
					"outlettype" : [ "" ],
					"patching_rect" : [ 1156.849863529205322, 251.480092791489909, 150.0, 22.0 ]
				}

			}
, 			{
				"box" : 				{
					"attr" : "activedialcolor",
					"id" : "obj-242",
					"maxclass" : "attrui",
					"numinlets" : 1,
					"numoutlets" : 1,
					"outlettype" : [ "" ],
					"patching_rect" : [ 997.430748045444489, 247.36179428078961, 150.0, 22.0 ]
				}

			}
, 			{
				"box" : 				{
					"attr" : "activedialcolor",
					"id" : "obj-241",
					"maxclass" : "attrui",
					"numinlets" : 1,
					"numoutlets" : 1,
					"outlettype" : [ "" ],
					"patching_rect" : [ 836.694936752319336, 248.336320182814717, 150.0, 22.0 ]
				}

			}
, 			{
				"box" : 				{
					"activedialcolor" : [ 1.0, 0.0, 1.0, 1.0 ],
					"id" : "obj-133",
					"maxclass" : "live.dial",
					"numinlets" : 1,
					"numoutlets" : 2,
					"outlettype" : [ "", "float" ],
					"parameter_enable" : 1,
					"patching_rect" : [ 935.987368196560737, 281.940874166812932, 41.0, 48.0 ],
					"presentation" : 1,
					"presentation_rect" : [ 89.22074493765831, 269.356377303600311, 41.0, 48.0 ],
					"saved_attribute_attributes" : 					{
						"valueof" : 						{
							"parameter_shortname" : "GAIN",
							"parameter_type" : 0,
							"parameter_unitstyle" : 4,
							"parameter_mmin" : -15.0,
							"parameter_longname" : "GAIN[10]",
							"parameter_initial_enable" : 1,
							"parameter_mmax" : 15.0,
							"parameter_initial" : [ 0 ]
						}

					}
,
					"varname" : "live.dial[8]"
				}

			}
, 			{
				"box" : 				{
					"activedialcolor" : [ 1.0, 0.0, 1.0, 1.0 ],
					"id" : "obj-136",
					"maxclass" : "live.dial",
					"numinlets" : 1,
					"numoutlets" : 2,
					"outlettype" : [ "", "float" ],
					"parameter_enable" : 1,
					"patching_rect" : [ 894.933766734037818, 314.019572362249505, 41.0, 48.0 ],
					"presentation" : 1,
					"presentation_rect" : [ 46.22074493765831, 230.356377303600311, 41.0, 48.0 ],
					"saved_attribute_attributes" : 					{
						"valueof" : 						{
							"parameter_shortname" : "Q",
							"parameter_type" : 0,
							"parameter_unitstyle" : 1,
							"parameter_mmin" : 0.404,
							"parameter_exponent" : 2.0,
							"parameter_longname" : "Q[9]",
							"parameter_initial_enable" : 1,
							"parameter_mmax" : 8.651,
							"parameter_initial" : [ 1.414 ]
						}

					}
,
					"varname" : "live.dial[9]"
				}

			}
, 			{
				"box" : 				{
					"activedialcolor" : [ 1.0, 0.0, 1.0, 1.0 ],
					"id" : "obj-137",
					"maxclass" : "live.dial",
					"numinlets" : 1,
					"numoutlets" : 2,
					"outlettype" : [ "", "float" ],
					"parameter_enable" : 1,
					"patching_rect" : [ 836.694936752319336, 281.940874166812932, 60.0, 48.0 ],
					"presentation" : 1,
					"presentation_rect" : [ 3.22074493765831, 269.356377303600311, 41.0, 48.0 ],
					"saved_attribute_attributes" : 					{
						"valueof" : 						{
							"parameter_shortname" : "FREQ",
							"parameter_type" : 0,
							"parameter_unitstyle" : 0,
							"parameter_mmin" : 30.0,
							"parameter_longname" : "FREQUENCY[2]",
							"parameter_initial_enable" : 1,
							"parameter_mmax" : 120.0,
							"parameter_initial" : [ 75 ]
						}

					}
,
					"varname" : "live.dial[12]"
				}

			}
, 			{
				"box" : 				{
					"activedialcolor" : [ 0.0, 0.0, 1.0, 1.0 ],
					"id" : "obj-119",
					"maxclass" : "live.dial",
					"numinlets" : 1,
					"numoutlets" : 2,
					"outlettype" : [ "", "float" ],
					"parameter_enable" : 1,
					"patching_rect" : [ 1103.221288480564908, 281.940874166812932, 41.0, 48.0 ],
					"presentation" : 1,
					"presentation_rect" : [ 89.22074493765831, 193.356377303600311, 41.0, 48.0 ],
					"saved_attribute_attributes" : 					{
						"valueof" : 						{
							"parameter_shortname" : "GAIN",
							"parameter_type" : 0,
							"parameter_unitstyle" : 4,
							"parameter_mmin" : -15.0,
							"parameter_longname" : "GAIN[12]",
							"parameter_initial_enable" : 1,
							"parameter_mmax" : 15.0,
							"parameter_initial" : [ 0 ]
						}

					}
,
					"varname" : "live.dial[4]"
				}

			}
, 			{
				"box" : 				{
					"activedialcolor" : [ 0.0, 0.0, 1.0, 1.0 ],
					"id" : "obj-122",
					"maxclass" : "live.dial",
					"numinlets" : 1,
					"numoutlets" : 2,
					"outlettype" : [ "", "float" ],
					"parameter_enable" : 1,
					"patching_rect" : [ 1059.480968877582427, 309.164471523609564, 41.0, 48.0 ],
					"presentation" : 1,
					"presentation_rect" : [ 46.22074493765831, 156.356377303600311, 41.0, 48.0 ],
					"saved_attribute_attributes" : 					{
						"valueof" : 						{
							"parameter_shortname" : "Q",
							"parameter_type" : 0,
							"parameter_unitstyle" : 1,
							"parameter_mmin" : 0.404,
							"parameter_exponent" : 2.0,
							"parameter_longname" : "Q[10]",
							"parameter_initial_enable" : 1,
							"parameter_mmax" : 8.651,
							"parameter_initial" : [ 1.414 ]
						}

					}
,
					"varname" : "live.dial[6]"
				}

			}
, 			{
				"box" : 				{
					"activedialcolor" : [ 0.0, 0.0, 1.0, 1.0 ],
					"id" : "obj-123",
					"maxclass" : "live.dial",
					"numinlets" : 1,
					"numoutlets" : 2,
					"outlettype" : [ "", "float" ],
					"parameter_enable" : 1,
					"patching_rect" : [ 997.430748045444489, 281.940874166812932, 60.0, 48.0 ],
					"presentation" : 1,
					"presentation_rect" : [ 3.22074493765831, 193.356377303600311, 41.0, 48.0 ],
					"saved_attribute_attributes" : 					{
						"valueof" : 						{
							"parameter_shortname" : "FREQ",
							"parameter_type" : 0,
							"parameter_unitstyle" : 0,
							"parameter_mmin" : 100.0,
							"parameter_longname" : "FREQUENCY[5]",
							"parameter_initial_enable" : 1,
							"parameter_mmax" : 800.0,
							"parameter_initial" : [ 450.0 ]
						}

					}
,
					"varname" : "live.dial[7]"
				}

			}
, 			{
				"box" : 				{
					"activedialcolor" : [ 0.0, 0.996078431372549, 0.0, 1.0 ],
					"id" : "obj-105",
					"maxclass" : "live.dial",
					"numinlets" : 1,
					"numoutlets" : 2,
					"outlettype" : [ "", "float" ],
					"parameter_enable" : 1,
					"patching_rect" : [ 1264.10959314421666, 287.950023094917924, 41.0, 48.0 ],
					"presentation" : 1,
					"presentation_rect" : [ 89.22074493765831, 119.356377303600311, 41.0, 48.0 ],
					"saved_attribute_attributes" : 					{
						"valueof" : 						{
							"parameter_shortname" : "GAIN",
							"parameter_type" : 0,
							"parameter_unitstyle" : 4,
							"parameter_mmin" : -15.0,
							"parameter_longname" : "GAIN[9]",
							"parameter_initial_enable" : 1,
							"parameter_mmax" : 15.0,
							"parameter_initial" : [ 0 ]
						}

					}
,
					"varname" : "live.dial[1]"
				}

			}
, 			{
				"box" : 				{
					"activedialcolor" : [ 0.0, 0.996078431372549, 0.0, 1.0 ],
					"id" : "obj-108",
					"maxclass" : "live.dial",
					"numinlets" : 1,
					"numoutlets" : 2,
					"outlettype" : [ "", "float" ],
					"parameter_enable" : 1,
					"patching_rect" : [ 1221.796121828203013, 322.672325217263165, 41.0, 48.0 ],
					"presentation" : 1,
					"presentation_rect" : [ 46.22074493765831, 81.356377303600311, 41.0, 48.0 ],
					"saved_attribute_attributes" : 					{
						"valueof" : 						{
							"parameter_shortname" : "Q",
							"parameter_type" : 0,
							"parameter_unitstyle" : 1,
							"parameter_mmin" : 0.404,
							"parameter_exponent" : 2.0,
							"parameter_longname" : "Q[5]",
							"parameter_initial_enable" : 1,
							"parameter_mmax" : 8.651,
							"parameter_initial" : [ 1.414 ]
						}

					}
,
					"varname" : "live.dial[2]"
				}

			}
, 			{
				"box" : 				{
					"activedialcolor" : [ 0.0, 0.996078431372549, 0.0, 1.0 ],
					"id" : "obj-109",
					"maxclass" : "live.dial",
					"numinlets" : 1,
					"numoutlets" : 2,
					"outlettype" : [ "", "float" ],
					"parameter_enable" : 1,
					"patching_rect" : [ 1161.770034612462723, 287.950023094917924, 60.0, 48.0 ],
					"presentation" : 1,
					"presentation_rect" : [ 3.22074493765831, 119.356377303600311, 41.0, 48.0 ],
					"saved_attribute_attributes" : 					{
						"valueof" : 						{
							"parameter_shortname" : "FREQ",
							"parameter_type" : 0,
							"parameter_unitstyle" : 1,
							"parameter_mmin" : 0.6,
							"parameter_longname" : "FREQUENCY[1]",
							"parameter_initial_enable" : 1,
							"parameter_mmax" : 7.0,
							"parameter_initial" : [ 3.825196850393702 ]
						}

					}
,
					"varname" : "live.dial[3]"
				}

			}
, 			{
				"box" : 				{
					"activedialcolor" : [ 1.0, 0.0, 0.0, 1.0 ],
					"id" : "obj-82",
					"maxclass" : "live.dial",
					"numinlets" : 1,
					"numoutlets" : 2,
					"outlettype" : [ "", "float" ],
					"parameter_enable" : 1,
					"patching_rect" : [ 1421.064527000751468, 288.3709500573637, 41.0, 48.0 ],
					"presentation" : 1,
					"presentation_rect" : [ 89.22074493765831, 44.356377303600311, 41.0, 48.0 ],
					"saved_attribute_attributes" : 					{
						"valueof" : 						{
							"parameter_shortname" : "GAIN",
							"parameter_type" : 0,
							"parameter_unitstyle" : 4,
							"parameter_mmin" : -15.0,
							"parameter_longname" : "GAIN[11]",
							"parameter_initial_enable" : 1,
							"parameter_mmax" : 15.0,
							"parameter_initial" : [ 0 ]
						}

					}
,
					"varname" : "live.dial[5]"
				}

			}
, 			{
				"box" : 				{
					"activedialcolor" : [ 1.0, 0.0, 0.0, 1.0 ],
					"id" : "obj-69",
					"maxclass" : "live.dial",
					"numinlets" : 1,
					"numoutlets" : 2,
					"outlettype" : [ "", "float" ],
					"parameter_enable" : 1,
					"patching_rect" : [ 1377.211071961886546, 323.300229281633278, 41.0, 48.0 ],
					"presentation" : 1,
					"presentation_rect" : [ 46.22074493765831, 6.356377303600311, 41.0, 48.0 ],
					"saved_attribute_attributes" : 					{
						"valueof" : 						{
							"parameter_shortname" : "Q",
							"parameter_type" : 0,
							"parameter_unitstyle" : 1,
							"parameter_mmin" : 0.404,
							"parameter_exponent" : 2.0,
							"parameter_longname" : "Q[6]",
							"parameter_initial_enable" : 1,
							"parameter_mmax" : 8.651,
							"parameter_initial" : [ 1.414 ]
						}

					}
,
					"varname" : "live.dial[10]"
				}

			}
, 			{
				"box" : 				{
					"activedialcolor" : [ 1.0, 0.0, 0.0, 1.0 ],
					"id" : "obj-70",
					"maxclass" : "live.dial",
					"numinlets" : 1,
					"numoutlets" : 2,
					"outlettype" : [ "", "float" ],
					"parameter_enable" : 1,
					"patching_rect" : [ 1315.000356674194336, 288.3709500573637, 60.0, 48.0 ],
					"presentation" : 1,
					"presentation_rect" : [ 3.22074493765831, 44.356377303600311, 41.0, 48.0 ],
					"saved_attribute_attributes" : 					{
						"valueof" : 						{
							"parameter_shortname" : "FREQ",
							"parameter_type" : 0,
							"parameter_unitstyle" : 1,
							"parameter_mmin" : 5.0,
							"parameter_longname" : "FREQUENCY[3]",
							"parameter_initial_enable" : 1,
							"parameter_mmax" : 15.0,
							"parameter_initial" : [ 10 ]
						}

					}
,
					"varname" : "live.dial[11]"
				}

			}
, 			{
				"box" : 				{
					"domain" : [ 20.0, 8000.0 ],
					"fontface" : 0,
					"id" : "obj-35",
					"ignoreclick" : 1,
					"linmarkers" : [ 0.0, 11025.0, 16537.5 ],
					"logmarkers" : [ 0.0, 100.0, 1000.0, 10000.0 ],
					"maxclass" : "filtergraph~",
					"nfilters" : 4,
					"numinlets" : 8,
					"numoutlets" : 7,
					"outlettype" : [ "list", "float", "float", "float", "float", "list", "int" ],
					"parameter_enable" : 0,
					"patching_rect" : [ 251.818171501159668, 309.164471523609564, 409.0, 177.0 ],
					"setfilter" : [ 3, 0, 1, 0, 0, 135.0, 1.0, 2.5, 0.0, 0.0, 0.0, 0.0, 0.0, 0.0, 2, 0, 1, 0, 0, 90.0, 1.0, 2.5, 0.0, 0.0, 0.0, 0.0, 0.0, 0.0, 1, 0, 1, 0, 0, 60.0, 1.0, 2.5, 0.0, 0.0, 0.0, 0.0, 0.0, 0.0, 0, 0, 1, 0, 0, 15.807791709899902, 9.600456237792969, 2.5, 1.0, 20000.0, 0.100000001490116, 0.0, 0.0, 0.0 ]
				}

			}
, 			{
				"box" : 				{
					"attr" : "presentation",
					"id" : "obj-232",
					"maxclass" : "attrui",
					"numinlets" : 1,
					"numoutlets" : 1,
					"outlettype" : [ "" ],
					"patching_rect" : [ 251.818171501159668, 285.164471523609564, 150.0, 22.0 ]
				}

			}
, 			{
				"box" : 				{
					"angle" : 270.0,
					"background" : 1,
					"bgcolor" : [ 0.996078431372549, 0.964705882352941, 0.964705882352941, 0.43 ],
					"bordercolor" : [ 0.807843137254902, 0.898039215686275, 0.909803921568627, 0.0 ],
					"id" : "obj-10",
					"maxclass" : "panel",
					"mode" : 0,
					"numinlets" : 1,
					"numoutlets" : 0,
					"patching_rect" : [ -0.503838, 269.356377000000009, 48.449165000000001, 49.014491999999997 ],
					"proportion" : 0.5,
					"rounded" : 905,
					"shape" : 1,
					"varname" : "Freq1"
				}

			}
, 			{
				"box" : 				{
					"angle" : 270.0,
					"background" : 1,
					"bgcolor" : [ 0.996078431372549, 0.964705882352941, 0.964705882352941, 0.43 ],
					"bordercolor" : [ 0.807843137254902, 0.898039215686275, 0.909803921568627, 0.0 ],
					"id" : "obj-17",
					"maxclass" : "panel",
					"mode" : 0,
					"numinlets" : 1,
					"numoutlets" : 0,
					"patching_rect" : [ -0.503838, 192.849131, 48.449165000000001, 49.014491999999997 ],
					"proportion" : 0.5,
					"rounded" : 905,
					"shape" : 1,
					"varname" : "Freq2"
				}

			}
, 			{
				"box" : 				{
					"angle" : 270.0,
					"background" : 1,
					"bgcolor" : [ 0.996078431372549, 0.964705882352941, 0.964705882352941, 0.43 ],
					"bordercolor" : [ 0.807843137254902, 0.898039215686275, 0.909803921568627, 0.0 ],
					"id" : "obj-43",
					"maxclass" : "panel",
					"mode" : 0,
					"numinlets" : 1,
					"numoutlets" : 0,
					"patching_rect" : [ 42.496161999999998, 5.849131, 48.449165000000001, 49.014491999999997 ],
					"proportion" : 0.5,
					"rounded" : 905,
					"shape" : 1,
					"varname" : "Q4"
				}

			}
, 			{
				"box" : 				{
					"angle" : 270.0,
					"background" : 1,
					"bgcolor" : [ 0.996078431372549, 0.964705882352941, 0.964705882352941, 0.43 ],
					"bordercolor" : [ 0.807843137254902, 0.898039215686275, 0.909803921568627, 0.0 ],
					"id" : "obj-39",
					"maxclass" : "panel",
					"mode" : 0,
					"numinlets" : 1,
					"numoutlets" : 0,
					"patching_rect" : [ 42.496161999999998, 80.849131, 48.449165000000001, 49.014491999999997 ],
					"proportion" : 0.5,
					"rounded" : 905,
					"shape" : 1,
					"varname" : "Q3"
				}

			}
, 			{
				"box" : 				{
					"angle" : 270.0,
					"background" : 1,
					"bgcolor" : [ 0.996078431372549, 0.964705882352941, 0.964705882352941, 0.43 ],
					"bordercolor" : [ 0.807843137254902, 0.898039215686275, 0.909803921568627, 0.0 ],
					"id" : "obj-34",
					"maxclass" : "panel",
					"mode" : 0,
					"numinlets" : 1,
					"numoutlets" : 0,
					"patching_rect" : [ 42.496161999999998, 156.356377000000009, 48.449165000000001, 49.014491999999997 ],
					"proportion" : 0.5,
					"rounded" : 905,
					"shape" : 1,
					"varname" : "Q2"
				}

			}
, 			{
				"box" : 				{
					"angle" : 270.0,
					"background" : 1,
					"bgcolor" : [ 0.996078431372549, 0.964705882352941, 0.964705882352941, 0.43 ],
					"bordercolor" : [ 0.807843137254902, 0.898039215686275, 0.909803921568627, 0.0 ],
					"id" : "obj-30",
					"maxclass" : "panel",
					"mode" : 0,
					"numinlets" : 1,
					"numoutlets" : 0,
					"patching_rect" : [ 42.496161999999998, 229.849131, 48.449165000000001, 49.014491999999997 ],
					"proportion" : 0.5,
					"rounded" : 905,
					"shape" : 1,
					"varname" : "Q1"
				}

			}
, 			{
				"box" : 				{
					"angle" : 270.0,
					"background" : 1,
					"bgcolor" : [ 0.996078431372549, 0.964705882352941, 0.964705882352941, 0.43 ],
					"bordercolor" : [ 0.807843137254902, 0.898039215686275, 0.909803921568627, 0.0 ],
					"id" : "obj-27",
					"maxclass" : "panel",
					"mode" : 0,
					"numinlets" : 1,
					"numoutlets" : 0,
					"patching_rect" : [ -0.503838, 43.849131, 48.449165000000001, 49.014491999999997 ],
					"proportion" : 0.5,
					"rounded" : 905,
					"shape" : 1,
					"varname" : "Freq4"
				}

			}
, 			{
				"box" : 				{
					"angle" : 270.0,
					"background" : 1,
					"bgcolor" : [ 0.996078431372549, 0.964705882352941, 0.964705882352941, 0.43 ],
					"bordercolor" : [ 0.807843137254902, 0.898039215686275, 0.909803921568627, 0.0 ],
					"id" : "obj-24",
					"maxclass" : "panel",
					"mode" : 0,
					"numinlets" : 1,
					"numoutlets" : 0,
					"patching_rect" : [ -0.503838, 118.849131, 48.449165000000001, 49.014491999999997 ],
					"proportion" : 0.5,
					"rounded" : 905,
					"shape" : 1,
					"varname" : "Freq3"
				}

			}
, 			{
				"box" : 				{
					"angle" : 270.0,
					"background" : 1,
					"bgcolor" : [ 0.996078431372549, 0.964705882352941, 0.964705882352941, 0.43 ],
					"bordercolor" : [ 0.807843137254902, 0.898039215686275, 0.909803921568627, 0.0 ],
					"id" : "obj-56",
					"maxclass" : "panel",
					"mode" : 0,
					"numinlets" : 1,
					"numoutlets" : 0,
					"patching_rect" : [ 85.496161999999998, 43.849131, 48.449165000000001, 49.014491999999997 ],
					"proportion" : 0.5,
					"rounded" : 905,
					"shape" : 1,
					"varname" : "Gain4"
				}

			}
, 			{
				"box" : 				{
					"angle" : 270.0,
					"background" : 1,
					"bgcolor" : [ 0.996078431372549, 0.964705882352941, 0.964705882352941, 0.43 ],
					"bordercolor" : [ 0.807843137254902, 0.898039215686275, 0.909803921568627, 0.0 ],
					"id" : "obj-57",
					"maxclass" : "panel",
					"mode" : 0,
					"numinlets" : 1,
					"numoutlets" : 0,
					"patching_rect" : [ 85.496161999999998, 118.849131, 48.449165000000001, 49.014491999999997 ],
					"proportion" : 0.5,
					"rounded" : 905,
					"shape" : 1,
					"varname" : "Gain3"
				}

			}
, 			{
				"box" : 				{
					"angle" : 270.0,
					"background" : 1,
					"bgcolor" : [ 0.996078431372549, 0.964705882352941, 0.964705882352941, 0.43 ],
					"bordercolor" : [ 0.807843137254902, 0.898039215686275, 0.909803921568627, 0.0 ],
					"id" : "obj-58",
					"maxclass" : "panel",
					"mode" : 0,
					"numinlets" : 1,
					"numoutlets" : 0,
					"patching_rect" : [ 85.496161999999998, 192.849131, 48.449165000000001, 49.014491999999997 ],
					"proportion" : 0.5,
					"rounded" : 905,
					"shape" : 1,
					"varname" : "Gain2"
				}

			}
, 			{
				"box" : 				{
					"angle" : 270.0,
					"background" : 1,
					"bgcolor" : [ 0.996078431372549, 0.964705882352941, 0.964705882352941, 0.43 ],
					"bordercolor" : [ 0.807843137254902, 0.898039215686275, 0.909803921568627, 0.0 ],
					"id" : "obj-59",
					"maxclass" : "panel",
					"mode" : 0,
					"numinlets" : 1,
					"numoutlets" : 0,
					"patching_rect" : [ 85.496161999999998, 268.849131, 48.449165000000001, 49.014491999999997 ],
					"proportion" : 0.5,
					"rounded" : 905,
					"shape" : 1,
					"varname" : "Gain1"
				}

			}
 ],
		"lines" : [ 			{
				"patchline" : 				{
					"destination" : [ "obj-4", 0 ],
					"source" : [ "obj-1", 0 ]
				}

			}
, 			{
				"patchline" : 				{
					"destination" : [ "obj-61", 0 ],
					"midpoints" : [ 1273.60959314421666, 429.0, 1344.0, 429.0, 1344.0, 717.0, 1347.0, 717.0, 1347.0, 765.0, 1281.0, 765.0, 1281.0, 873.0, 1221.0, 873.0, 1221.0, 867.0, 1206.946956394865083, 867.0 ],
					"order" : 3,
					"source" : [ "obj-105", 0 ]
				}

			}
, 			{
				"patchline" : 				{
					"destination" : [ "obj-72", 7 ],
					"midpoints" : [ 1273.60959314421666, 420.0, 1689.0, 420.0 ],
					"order" : 0,
					"source" : [ "obj-105", 0 ]
				}

			}
, 			{
				"patchline" : 				{
					"destination" : [ "obj-73", 7 ],
					"midpoints" : [ 1273.60959314421666, 381.0, 1482.0, 381.0, 1482.0, 117.0, 1663.5, 117.0 ],
					"order" : 1,
					"source" : [ "obj-105", 0 ]
				}

			}
, 			{
				"patchline" : 				{
					"destination" : [ "obj-81", 0 ],
					"midpoints" : [ 1273.60959314421666, 429.0, 1344.0, 429.0, 1344.0, 717.0, 1347.0, 717.0, 1347.0, 765.0, 1308.132825732721813, 765.0 ],
					"order" : 2,
					"source" : [ "obj-105", 0 ]
				}

			}
, 			{
				"patchline" : 				{
					"destination" : [ "obj-7", 0 ],
					"midpoints" : [ 1231.296121828203013, 429.0, 1167.0, 429.0, 1167.0, 711.0, 1179.0, 711.0, 1179.0, 765.0, 1116.0, 765.0, 1116.0, 867.0, 1149.031286535171603, 867.0 ],
					"order" : 3,
					"source" : [ "obj-108", 0 ]
				}

			}
, 			{
				"patchline" : 				{
					"destination" : [ "obj-72", 8 ],
					"midpoints" : [ 1231.296121828203013, 420.0, 1699.5, 420.0 ],
					"order" : 0,
					"source" : [ "obj-108", 0 ]
				}

			}
, 			{
				"patchline" : 				{
					"destination" : [ "obj-73", 8 ],
					"midpoints" : [ 1231.296121828203013, 381.0, 1482.0, 381.0, 1482.0, 117.0, 1674.0, 117.0 ],
					"order" : 1,
					"source" : [ "obj-108", 0 ]
				}

			}
, 			{
				"patchline" : 				{
					"destination" : [ "obj-77", 0 ],
					"midpoints" : [ 1231.296121828203013, 429.0, 1167.0, 429.0, 1167.0, 642.0, 1206.927318121010558, 642.0 ],
					"order" : 2,
					"source" : [ "obj-108", 0 ]
				}

			}
, 			{
				"patchline" : 				{
					"destination" : [ "obj-1", 0 ],
					"midpoints" : [ 1171.270034612462723, 429.0, 1167.0, 429.0, 1167.0, 711.0, 1179.0, 711.0, 1179.0, 765.0, 1116.0, 765.0, 1116.0, 867.0, 1092.031286535171603, 867.0 ],
					"order" : 3,
					"source" : [ "obj-109", 0 ]
				}

			}
, 			{
				"patchline" : 				{
					"destination" : [ "obj-72", 6 ],
					"midpoints" : [ 1171.270034612462723, 420.0, 1678.5, 420.0 ],
					"order" : 0,
					"source" : [ "obj-109", 0 ]
				}

			}
, 			{
				"patchline" : 				{
					"destination" : [ "obj-73", 6 ],
					"midpoints" : [ 1171.270034612462723, 381.0, 1482.0, 381.0, 1482.0, 117.0, 1653.0, 117.0 ],
					"order" : 1,
					"source" : [ "obj-109", 0 ]
				}

			}
, 			{
				"patchline" : 				{
					"destination" : [ "obj-74", 0 ],
					"midpoints" : [ 1171.270034612462723, 516.0, 1191.5, 516.0 ],
					"order" : 2,
					"source" : [ "obj-109", 0 ]
				}

			}
, 			{
				"patchline" : 				{
					"destination" : [ "obj-19", 0 ],
					"midpoints" : [ 861.927318121010444, 716.0, 862.064527000751582, 716.0 ],
					"source" : [ "obj-11", 0 ]
				}

			}
, 			{
				"patchline" : 				{
					"destination" : [ "obj-61", 0 ],
					"midpoints" : [ 1112.721288480564908, 516.0, 1167.0, 516.0, 1167.0, 711.0, 1179.0, 711.0, 1179.0, 765.0, 1116.0, 765.0, 1116.0, 867.0, 1206.946956394865083, 867.0 ],
					"order" : 2,
					"source" : [ "obj-119", 0 ]
				}

			}
, 			{
				"patchline" : 				{
					"destination" : [ "obj-72", 4 ],
					"midpoints" : [ 1112.721288480564908, 420.0, 1657.5, 420.0 ],
					"order" : 0,
					"source" : [ "obj-119", 0 ]
				}

			}
, 			{
				"patchline" : 				{
					"destination" : [ "obj-73", 4 ],
					"midpoints" : [ 1112.721288480564908, 381.0, 1482.0, 381.0, 1482.0, 117.0, 1632.0, 117.0 ],
					"order" : 1,
					"source" : [ "obj-119", 0 ]
				}

			}
, 			{
				"patchline" : 				{
					"destination" : [ "obj-83", 0 ],
					"midpoints" : [ 1112.721288480564908, 516.0, 1167.0, 516.0, 1167.0, 711.0, 1179.0, 711.0, 1179.0, 765.0, 1140.132825732721813, 765.0 ],
					"order" : 3,
					"source" : [ "obj-119", 0 ]
				}

			}
, 			{
				"patchline" : 				{
					"destination" : [ "obj-7", 0 ],
					"midpoints" : [ 1068.980968877582427, 516.0, 999.0, 516.0, 999.0, 705.0, 1014.0, 705.0, 1014.0, 765.0, 1116.0, 765.0, 1116.0, 867.0, 1149.031286535171603, 867.0 ],
					"order" : 2,
					"source" : [ "obj-122", 0 ]
				}

			}
, 			{
				"patchline" : 				{
					"destination" : [ "obj-72", 5 ],
					"midpoints" : [ 1068.980968877582427, 420.0, 1668.0, 420.0 ],
					"order" : 0,
					"source" : [ "obj-122", 0 ]
				}

			}
, 			{
				"patchline" : 				{
					"destination" : [ "obj-73", 5 ],
					"midpoints" : [ 1068.980968877582427, 381.0, 1482.0, 381.0, 1482.0, 117.0, 1642.5, 117.0 ],
					"order" : 1,
					"source" : [ "obj-122", 0 ]
				}

			}
, 			{
				"patchline" : 				{
					"destination" : [ "obj-78", 0 ],
					"midpoints" : [ 1068.980968877582427, 516.0, 999.0, 516.0, 999.0, 642.0, 1038.927318121010558, 642.0 ],
					"order" : 3,
					"source" : [ "obj-122", 0 ]
				}

			}
, 			{
				"patchline" : 				{
					"destination" : [ "obj-1", 0 ],
					"midpoints" : [ 1006.930748045444489, 567.0, 999.0, 567.0, 999.0, 705.0, 1014.0, 705.0, 1014.0, 765.0, 1113.0, 765.0, 1113.0, 867.0, 1092.031286535171603, 867.0 ],
					"order" : 2,
					"source" : [ "obj-123", 0 ]
				}

			}
, 			{
				"patchline" : 				{
					"destination" : [ "obj-67", 0 ],
					"midpoints" : [ 1006.930748045444489, 516.0, 1024.5, 516.0 ],
					"order" : 3,
					"source" : [ "obj-123", 0 ]
				}

			}
, 			{
				"patchline" : 				{
					"destination" : [ "obj-72", 3 ],
					"midpoints" : [ 1006.930748045444489, 420.0, 1647.0, 420.0 ],
					"order" : 0,
					"source" : [ "obj-123", 0 ]
				}

			}
, 			{
				"patchline" : 				{
					"destination" : [ "obj-73", 3 ],
					"midpoints" : [ 1006.930748045444489, 381.0, 1482.0, 381.0, 1482.0, 117.0, 1621.5, 117.0 ],
					"order" : 1,
					"source" : [ "obj-123", 0 ]
				}

			}
, 			{
				"patchline" : 				{
					"destination" : [ "obj-61", 0 ],
					"midpoints" : [ 945.487368196560737, 579.0, 999.0, 579.0, 999.0, 705.0, 1014.0, 705.0, 1014.0, 765.0, 1116.0, 765.0, 1116.0, 867.0, 1206.946956394865083, 867.0 ],
					"order" : 2,
					"source" : [ "obj-133", 0 ]
				}

			}
, 			{
				"patchline" : 				{
					"destination" : [ "obj-72", 1 ],
					"midpoints" : [ 945.487368196560737, 420.0, 1626.0, 420.0 ],
					"order" : 0,
					"source" : [ "obj-133", 0 ]
				}

			}
, 			{
				"patchline" : 				{
					"destination" : [ "obj-73", 1 ],
					"midpoints" : [ 945.487368196560737, 381.0, 1482.0, 381.0, 1482.0, 117.0, 1600.5, 117.0 ],
					"order" : 1,
					"source" : [ "obj-133", 0 ]
				}

			}
, 			{
				"patchline" : 				{
					"destination" : [ "obj-84", 0 ],
					"midpoints" : [ 945.487368196560737, 579.0, 999.0, 579.0, 999.0, 705.0, 1014.0, 705.0, 1014.0, 765.0, 963.132825732721699, 765.0 ],
					"order" : 3,
					"source" : [ "obj-133", 0 ]
				}

			}
, 			{
				"patchline" : 				{
					"destination" : [ "obj-7", 0 ],
					"midpoints" : [ 904.433766734037818, 516.0, 999.0, 516.0, 999.0, 705.0, 1014.0, 705.0, 1014.0, 765.0, 1116.0, 765.0, 1116.0, 867.0, 1149.031286535171603, 867.0 ],
					"order" : 2,
					"source" : [ "obj-136", 0 ]
				}

			}
, 			{
				"patchline" : 				{
					"destination" : [ "obj-72", 2 ],
					"midpoints" : [ 904.433766734037818, 420.0, 1636.5, 420.0 ],
					"order" : 0,
					"source" : [ "obj-136", 0 ]
				}

			}
, 			{
				"patchline" : 				{
					"destination" : [ "obj-73", 2 ],
					"midpoints" : [ 904.433766734037818, 381.0, 1482.0, 381.0, 1482.0, 117.0, 1611.0, 117.0 ],
					"order" : 1,
					"source" : [ "obj-136", 0 ]
				}

			}
, 			{
				"patchline" : 				{
					"destination" : [ "obj-79", 0 ],
					"midpoints" : [ 904.433766734037818, 516.0, 807.0, 516.0, 807.0, 642.0, 861.927318121010444, 642.0 ],
					"order" : 3,
					"source" : [ "obj-136", 0 ]
				}

			}
, 			{
				"patchline" : 				{
					"destination" : [ "obj-1", 0 ],
					"midpoints" : [ 846.194936752319336, 516.0, 999.0, 516.0, 999.0, 705.0, 1014.0, 705.0, 1014.0, 765.0, 1113.0, 765.0, 1113.0, 867.0, 1092.031286535171603, 867.0 ],
					"order" : 2,
					"source" : [ "obj-137", 0 ]
				}

			}
, 			{
				"patchline" : 				{
					"destination" : [ "obj-66", 0 ],
					"midpoints" : [ 846.194936752319336, 516.0, 831.41566985969348, 516.0 ],
					"order" : 3,
					"source" : [ "obj-137", 0 ]
				}

			}
, 			{
				"patchline" : 				{
					"destination" : [ "obj-72", 0 ],
					"midpoints" : [ 846.194936752319336, 420.0, 1615.5, 420.0 ],
					"order" : 0,
					"source" : [ "obj-137", 0 ]
				}

			}
, 			{
				"patchline" : 				{
					"destination" : [ "obj-73", 0 ],
					"midpoints" : [ 846.194936752319336, 330.0, 822.0, 330.0, 822.0, 117.0, 1590.0, 117.0 ],
					"order" : 1,
					"source" : [ "obj-137", 0 ]
				}

			}
, 			{
				"patchline" : 				{
					"destination" : [ "obj-10", 0 ],
					"midpoints" : [ 831.552878739434618, 625.920125583465278, 420.274520369717322, 625.920125583465278, 420.274520369717322, 258.356377000000009, 8.996162, 258.356377000000009 ],
					"source" : [ "obj-14", 0 ]
				}

			}
, 			{
				"patchline" : 				{
					"destination" : [ "obj-17", 0 ],
					"midpoints" : [ 1023.733330607414246, 614.920125583465278, 516.364746303707079, 614.920125583465278, 516.364746303707079, 181.849131, 8.996162, 181.849131 ],
					"source" : [ "obj-15", 0 ]
				}

			}
, 			{
				"patchline" : 				{
					"destination" : [ "obj-15", 0 ],
					"midpoints" : [ 1024.5, 582.0, 1023.733330607414246, 582.0 ],
					"source" : [ "obj-18", 0 ]
				}

			}
, 			{
				"patchline" : 				{
					"destination" : [ "obj-30", 0 ],
					"midpoints" : [ 862.064527000751582, 684.409838394966528, 469.133098306231432, 684.409838394966528, 469.133098306231432, 218.849131, 51.996161999999998, 218.849131 ],
					"source" : [ "obj-19", 0 ]
				}

			}
, 			{
				"patchline" : 				{
					"destination" : [ "obj-21", 0 ],
					"midpoints" : [ 1191.5, 579.0, 1191.45453417301178, 579.0 ],
					"source" : [ "obj-20", 0 ]
				}

			}
, 			{
				"patchline" : 				{
					"destination" : [ "obj-24", 0 ],
					"midpoints" : [ 1191.45453417301178, 614.920125583465278, 600.225348086505846, 614.920125583465278, 600.225348086505846, 107.849131, 8.996162, 107.849131 ],
					"source" : [ "obj-21", 0 ]
				}

			}
, 			{
				"patchline" : 				{
					"destination" : [ "obj-65", 0 ],
					"source" : [ "obj-23", 0 ]
				}

			}
, 			{
				"patchline" : 				{
					"destination" : [ "obj-35", 0 ],
					"source" : [ "obj-232", 0 ]
				}

			}
, 			{
				"patchline" : 				{
					"destination" : [ "obj-133", 0 ],
					"midpoints" : [ 846.194936752319336, 273.0, 945.487368196560737, 273.0 ],
					"order" : 0,
					"source" : [ "obj-241", 0 ]
				}

			}
, 			{
				"patchline" : 				{
					"destination" : [ "obj-136", 0 ],
					"midpoints" : [ 846.194936752319336, 273.0, 906.0, 273.0, 906.0, 309.0, 904.433766734037818, 309.0 ],
					"order" : 1,
					"source" : [ "obj-241", 0 ]
				}

			}
, 			{
				"patchline" : 				{
					"destination" : [ "obj-137", 0 ],
					"midpoints" : [ 846.194936752319336, 273.0, 846.194936752319336, 273.0 ],
					"order" : 2,
					"source" : [ "obj-241", 0 ]
				}

			}
, 			{
				"patchline" : 				{
					"destination" : [ "obj-119", 0 ],
					"midpoints" : [ 1006.930748045444489, 276.0, 1112.721288480564908, 276.0 ],
					"order" : 0,
					"source" : [ "obj-242", 0 ]
				}

			}
, 			{
				"patchline" : 				{
					"destination" : [ "obj-122", 0 ],
					"midpoints" : [ 1006.930748045444489, 276.0, 1068.980968877582427, 276.0 ],
					"order" : 1,
					"source" : [ "obj-242", 0 ]
				}

			}
, 			{
				"patchline" : 				{
					"destination" : [ "obj-123", 0 ],
					"midpoints" : [ 1006.930748045444489, 270.0, 1006.930748045444489, 270.0 ],
					"order" : 2,
					"source" : [ "obj-242", 0 ]
				}

			}
, 			{
				"patchline" : 				{
					"destination" : [ "obj-105", 0 ],
					"midpoints" : [ 1166.349863529205322, 282.0, 1273.60959314421666, 282.0 ],
					"order" : 0,
					"source" : [ "obj-243", 0 ]
				}

			}
, 			{
				"patchline" : 				{
					"destination" : [ "obj-108", 0 ],
					"midpoints" : [ 1166.349863529205322, 282.0, 1233.0, 282.0, 1233.0, 318.0, 1231.296121828203013, 318.0 ],
					"order" : 1,
					"source" : [ "obj-243", 0 ]
				}

			}
, 			{
				"patchline" : 				{
					"destination" : [ "obj-109", 0 ],
					"midpoints" : [ 1166.349863529205322, 282.0, 1171.270034612462723, 282.0 ],
					"order" : 2,
					"source" : [ "obj-243", 0 ]
				}

			}
, 			{
				"patchline" : 				{
					"destination" : [ "obj-69", 0 ],
					"midpoints" : [ 1324.500356674194336, 285.0, 1386.711071961886546, 285.0 ],
					"order" : 1,
					"source" : [ "obj-244", 0 ]
				}

			}
, 			{
				"patchline" : 				{
					"destination" : [ "obj-70", 0 ],
					"midpoints" : [ 1324.500356674194336, 276.0, 1324.500356674194336, 276.0 ],
					"order" : 2,
					"source" : [ "obj-244", 0 ]
				}

			}
, 			{
				"patchline" : 				{
					"destination" : [ "obj-82", 0 ],
					"midpoints" : [ 1324.500356674194336, 285.0, 1430.564527000751468, 285.0 ],
					"order" : 0,
					"source" : [ "obj-244", 0 ]
				}

			}
, 			{
				"patchline" : 				{
					"destination" : [ "obj-27", 0 ],
					"midpoints" : [ 1367.189676463603973, 614.920125583465278, 688.092919231801943, 614.920125583465278, 688.092919231801943, 32.849131, 8.996162, 32.849131 ],
					"source" : [ "obj-25", 0 ]
				}

			}
, 			{
				"patchline" : 				{
					"destination" : [ "obj-25", 0 ],
					"midpoints" : [ 1367.5, 582.0, 1367.189676463603973, 582.0 ],
					"source" : [ "obj-29", 0 ]
				}

			}
, 			{
				"patchline" : 				{
					"destination" : [ "obj-32", 0 ],
					"midpoints" : [ 1038.927318121010558, 719.0, 1039.064527000751696, 719.0 ],
					"source" : [ "obj-31", 0 ]
				}

			}
, 			{
				"patchline" : 				{
					"destination" : [ "obj-34", 0 ],
					"midpoints" : [ 1039.064527000751696, 688.409838394966528, 557.633098306231432, 688.409838394966528, 557.633098306231432, 145.356377000000009, 51.996161999999998, 145.356377000000009 ],
					"source" : [ "obj-32", 0 ]
				}

			}
, 			{
				"patchline" : 				{
					"destination" : [ "obj-65", 1 ],
					"source" : [ "obj-35", 0 ]
				}

			}
, 			{
				"patchline" : 				{
					"destination" : [ "obj-37", 0 ],
					"midpoints" : [ 1206.927318121010558, 716.0, 1207.064527000751696, 716.0 ],
					"source" : [ "obj-36", 0 ]
				}

			}
, 			{
				"patchline" : 				{
					"destination" : [ "obj-39", 0 ],
					"midpoints" : [ 1207.064527000751696, 684.409838394966528, 641.633098306231432, 684.409838394966528, 641.633098306231432, 69.849131, 51.996161999999998, 69.849131 ],
					"source" : [ "obj-37", 0 ]
				}

			}
, 			{
				"patchline" : 				{
					"destination" : [ "obj-41", 0 ],
					"midpoints" : [ 1375.92731812101033, 716.0, 1376.064527000751468, 716.0 ],
					"source" : [ "obj-40", 0 ]
				}

			}
, 			{
				"patchline" : 				{
					"destination" : [ "obj-43", 0 ],
					"midpoints" : [ 1376.064527000751468, 684.409838394966528, 726.133098306231318, 684.409838394966528, 726.133098306231318, -5.150869, 51.996161999999998, -5.150869 ],
					"source" : [ "obj-41", 0 ]
				}

			}
, 			{
				"patchline" : 				{
					"destination" : [ "obj-45", 0 ],
					"source" : [ "obj-44", 0 ]
				}

			}
, 			{
				"patchline" : 				{
					"destination" : [ "obj-56", 0 ],
					"midpoints" : [ 1477.270034612462723, 868.409838394966528, 786.133098306231318, 868.409838394966528, 786.133098306231318, 32.849131, 94.996161999999998, 32.849131 ],
					"source" : [ "obj-45", 0 ]
				}

			}
, 			{
				"patchline" : 				{
					"destination" : [ "obj-48", 0 ],
					"source" : [ "obj-47", 0 ]
				}

			}
, 			{
				"patchline" : 				{
					"destination" : [ "obj-57", 0 ],
					"midpoints" : [ 1308.27003461246295, 820.409838394966528, 709.133098306231432, 820.409838394966528, 709.133098306231432, 107.849131, 94.996161999999998, 107.849131 ],
					"source" : [ "obj-48", 0 ]
				}

			}
, 			{
				"patchline" : 				{
					"destination" : [ "obj-18", 0 ],
					"midpoints" : [ 1046.379036843648464, 234.0, 993.0, 234.0, 993.0, 552.0, 1024.5, 552.0 ],
					"order" : 8,
					"source" : [ "obj-5", 0 ]
				}

			}
, 			{
				"patchline" : 				{
					"destination" : [ "obj-19", 0 ],
					"midpoints" : [ 1046.379036843648464, 234.0, 807.0, 234.0, 807.0, 714.0, 862.064527000751582, 714.0 ],
					"order" : 10,
					"source" : [ "obj-5", 0 ]
				}

			}
, 			{
				"patchline" : 				{
					"destination" : [ "obj-20", 0 ],
					"midpoints" : [ 1046.379036843648464, 234.0, 1152.0, 234.0, 1152.0, 549.0, 1191.5, 549.0 ],
					"order" : 5,
					"source" : [ "obj-5", 0 ]
				}

			}
, 			{
				"patchline" : 				{
					"destination" : [ "obj-29", 0 ],
					"midpoints" : [ 1046.379036843648464, 234.0, 1311.0, 234.0, 1311.0, 429.0, 1344.0, 429.0, 1344.0, 552.0, 1367.5, 552.0 ],
					"order" : 2,
					"source" : [ "obj-5", 0 ]
				}

			}
, 			{
				"patchline" : 				{
					"destination" : [ "obj-32", 0 ],
					"midpoints" : [ 1046.379036843648464, 234.0, 993.0, 234.0, 993.0, 705.0, 1014.0, 705.0, 1014.0, 720.0, 1039.064527000751696, 720.0 ],
					"order" : 7,
					"source" : [ "obj-5", 0 ]
				}

			}
, 			{
				"patchline" : 				{
					"destination" : [ "obj-37", 0 ],
					"midpoints" : [ 1046.379036843648464, 234.0, 1152.0, 234.0, 1152.0, 567.0, 1167.0, 567.0, 1167.0, 711.0, 1194.0, 711.0, 1194.0, 714.0, 1207.064527000751696, 714.0 ],
					"order" : 4,
					"source" : [ "obj-5", 0 ]
				}

			}
, 			{
				"patchline" : 				{
					"destination" : [ "obj-41", 0 ],
					"midpoints" : [ 1046.379036843648464, 234.0, 1311.0, 234.0, 1311.0, 429.0, 1344.0, 429.0, 1344.0, 705.0, 1362.0, 705.0, 1362.0, 714.0, 1376.064527000751468, 714.0 ],
					"order" : 1,
					"source" : [ "obj-5", 0 ]
				}

			}
, 			{
				"patchline" : 				{
					"destination" : [ "obj-44", 0 ],
					"midpoints" : [ 1046.379036843648464, 234.0, 1482.0, 234.0, 1482.0, 567.0, 1527.0, 567.0, 1527.0, 765.0, 1464.0, 765.0, 1464.0, 801.0, 1477.132825732721585, 801.0 ],
					"order" : 0,
					"source" : [ "obj-5", 0 ]
				}

			}
, 			{
				"patchline" : 				{
					"destination" : [ "obj-47", 0 ],
					"midpoints" : [ 1046.379036843648464, 234.0, 1152.0, 234.0, 1152.0, 567.0, 1167.0, 567.0, 1167.0, 711.0, 1182.0, 711.0, 1182.0, 765.0, 1284.0, 765.0, 1284.0, 801.0, 1308.132825732721813, 801.0 ],
					"order" : 3,
					"source" : [ "obj-5", 0 ]
				}

			}
, 			{
				"patchline" : 				{
					"destination" : [ "obj-50", 0 ],
					"midpoints" : [ 1046.379036843648464, 234.0, 993.0, 234.0, 993.0, 705.0, 1014.0, 705.0, 1014.0, 765.0, 1116.0, 765.0, 1116.0, 804.0, 1140.132825732721813, 804.0 ],
					"order" : 6,
					"source" : [ "obj-5", 0 ]
				}

			}
, 			{
				"patchline" : 				{
					"destination" : [ "obj-53", 0 ],
					"midpoints" : [ 1046.379036843648464, 234.0, 993.0, 234.0, 993.0, 705.0, 1014.0, 705.0, 1014.0, 765.0, 939.0, 765.0, 939.0, 801.0, 963.132825732721699, 801.0 ],
					"order" : 9,
					"source" : [ "obj-5", 0 ]
				}

			}
, 			{
				"patchline" : 				{
					"destination" : [ "obj-9", 0 ],
					"midpoints" : [ 1046.379036843648464, 234.0, 807.0, 234.0, 807.0, 558.0, 831.41566985969348, 558.0 ],
					"order" : 11,
					"source" : [ "obj-5", 0 ]
				}

			}
, 			{
				"patchline" : 				{
					"destination" : [ "obj-51", 0 ],
					"source" : [ "obj-50", 0 ]
				}

			}
, 			{
				"patchline" : 				{
					"destination" : [ "obj-58", 0 ],
					"midpoints" : [ 1140.27003461246295, 824.409838394966528, 625.133098306231432, 824.409838394966528, 625.133098306231432, 181.849131, 94.996161999999998, 181.849131 ],
					"source" : [ "obj-51", 0 ]
				}

			}
, 			{
				"patchline" : 				{
					"destination" : [ "obj-54", 0 ],
					"source" : [ "obj-53", 0 ]
				}

			}
, 			{
				"patchline" : 				{
					"destination" : [ "obj-59", 0 ],
					"midpoints" : [ 963.270034612462837, 813.0, 210.0, 813.0, 210.0, 255.0, 94.996161999999998, 255.0 ],
					"source" : [ "obj-54", 0 ]
				}

			}
, 			{
				"patchline" : 				{
					"destination" : [ "obj-68", 0 ],
					"midpoints" : [ 1809.0, 54.0, 1773.0, 54.0 ],
					"order" : 1,
					"source" : [ "obj-60", 0 ]
				}

			}
, 			{
				"patchline" : 				{
					"destination" : [ "obj-71", 0 ],
					"midpoints" : [ 1809.0, 96.0, 1830.0, 96.0, 1830.0, 147.0, 1773.0, 147.0 ],
					"order" : 0,
					"source" : [ "obj-60", 0 ]
				}

			}
, 			{
				"patchline" : 				{
					"destination" : [ "obj-63", 0 ],
					"source" : [ "obj-61", 0 ]
				}

			}
, 			{
				"patchline" : 				{
					"destination" : [ "obj-5", 0 ],
					"source" : [ "obj-64", 0 ]
				}

			}
, 			{
				"patchline" : 				{
					"destination" : [ "obj-2", 0 ],
					"source" : [ "obj-65", 0 ]
				}

			}
, 			{
				"patchline" : 				{
					"destination" : [ "obj-9", 0 ],
					"midpoints" : [ 831.41566985969348, 555.0, 831.41566985969348, 555.0 ],
					"source" : [ "obj-66", 0 ]
				}

			}
, 			{
				"patchline" : 				{
					"destination" : [ "obj-18", 0 ],
					"midpoints" : [ 1024.5, 555.0, 1024.5, 555.0 ],
					"source" : [ "obj-67", 0 ]
				}

			}
, 			{
				"patchline" : 				{
					"destination" : [ "obj-62", 0 ],
					"midpoints" : [ 1773.0, 135.0, 1749.0, 135.0, 1749.0, 318.0, 1773.0, 318.0 ],
					"source" : [ "obj-68", 0 ]
				}

			}
, 			{
				"patchline" : 				{
					"destination" : [ "obj-73", 12 ],
					"midpoints" : [ 1809.0, 135.0, 1746.0, 135.0, 1746.0, 117.0, 1716.0, 117.0 ],
					"source" : [ "obj-68", 1 ]
				}

			}
, 			{
				"patchline" : 				{
					"destination" : [ "obj-7", 0 ],
					"midpoints" : [ 1386.711071961886546, 516.0, 1341.0, 516.0, 1341.0, 642.0, 1179.0, 642.0, 1179.0, 765.0, 1116.0, 765.0, 1116.0, 867.0, 1149.031286535171603, 867.0 ],
					"order" : 3,
					"source" : [ "obj-69", 0 ]
				}

			}
, 			{
				"patchline" : 				{
					"destination" : [ "obj-72", 11 ],
					"midpoints" : [ 1386.711071961886546, 420.0, 1731.0, 420.0 ],
					"order" : 0,
					"source" : [ "obj-69", 0 ]
				}

			}
, 			{
				"patchline" : 				{
					"destination" : [ "obj-73", 10 ],
					"midpoints" : [ 1386.711071961886546, 381.0, 1482.0, 381.0, 1482.0, 117.0, 1695.0, 117.0 ],
					"order" : 1,
					"source" : [ "obj-69", 0 ]
				}

			}
, 			{
				"patchline" : 				{
					"destination" : [ "obj-76", 0 ],
					"midpoints" : [ 1386.711071961886546, 516.0, 1344.0, 516.0, 1344.0, 642.0, 1375.92731812101033, 642.0 ],
					"order" : 2,
					"source" : [ "obj-69", 0 ]
				}

			}
, 			{
				"patchline" : 				{
					"destination" : [ "obj-8", 0 ],
					"source" : [ "obj-7", 0 ]
				}

			}
, 			{
				"patchline" : 				{
					"destination" : [ "obj-1", 0 ],
					"midpoints" : [ 1324.500356674194336, 429.0, 1344.0, 429.0, 1344.0, 642.0, 1179.0, 642.0, 1179.0, 765.0, 1116.0, 765.0, 1116.0, 867.0, 1092.031286535171603, 867.0 ],
					"order" : 3,
					"source" : [ "obj-70", 0 ]
				}

			}
, 			{
				"patchline" : 				{
					"destination" : [ "obj-72", 9 ],
					"midpoints" : [ 1324.500356674194336, 420.0, 1710.0, 420.0 ],
					"order" : 0,
					"source" : [ "obj-70", 0 ]
				}

			}
, 			{
				"patchline" : 				{
					"destination" : [ "obj-73", 9 ],
					"midpoints" : [ 1324.500356674194336, 381.0, 1482.0, 381.0, 1482.0, 117.0, 1684.5, 117.0 ],
					"order" : 1,
					"source" : [ "obj-70", 0 ]
				}

			}
, 			{
				"patchline" : 				{
					"destination" : [ "obj-75", 0 ],
					"midpoints" : [ 1324.500356674194336, 429.0, 1367.5, 429.0 ],
					"order" : 2,
					"source" : [ "obj-70", 0 ]
				}

			}
, 			{
				"patchline" : 				{
					"destination" : [ "obj-62", 0 ],
					"midpoints" : [ 1773.0, 174.0, 1773.0, 174.0 ],
					"source" : [ "obj-71", 0 ]
				}

			}
, 			{
				"patchline" : 				{
					"destination" : [ "obj-73", 13 ],
					"midpoints" : [ 1809.0, 183.0, 1746.0, 183.0, 1746.0, 126.0, 1726.5, 126.0 ],
					"source" : [ "obj-71", 1 ]
				}

			}
, 			{
				"patchline" : 				{
					"destination" : [ "obj-3", 0 ],
					"midpoints" : [ 1615.5, 516.0, 514.5, 516.0 ],
					"order" : 0,
					"source" : [ "obj-72", 0 ]
				}

			}
, 			{
				"patchline" : 				{
					"destination" : [ "obj-35", 0 ],
					"midpoints" : [ 1615.5, 465.0, 977.409085750579834, 465.0, 977.409085750579834, 298.164471523609564, 261.318171501159668, 298.164471523609564 ],
					"order" : 1,
					"source" : [ "obj-72", 0 ]
				}

			}
, 			{
				"patchline" : 				{
					"destination" : [ "obj-105", 0 ],
					"midpoints" : [ 1663.5, 237.0, 1308.0, 237.0, 1308.0, 279.0, 1273.60959314421666, 279.0 ],
					"source" : [ "obj-73", 7 ]
				}

			}
, 			{
				"patchline" : 				{
					"destination" : [ "obj-108", 0 ],
					"midpoints" : [ 1674.0, 237.0, 1308.0, 237.0, 1308.0, 282.0, 1251.0, 282.0, 1251.0, 309.0, 1231.296121828203013, 309.0 ],
					"source" : [ "obj-73", 8 ]
				}

			}
, 			{
				"patchline" : 				{
					"destination" : [ "obj-109", 0 ],
					"midpoints" : [ 1653.0, 237.0, 1152.0, 237.0, 1152.0, 279.0, 1171.270034612462723, 279.0 ],
					"source" : [ "obj-73", 6 ]
				}

			}
, 			{
				"patchline" : 				{
					"destination" : [ "obj-119", 0 ],
					"midpoints" : [ 1632.0, 234.0, 1149.0, 234.0, 1149.0, 276.0, 1112.721288480564908, 276.0 ],
					"source" : [ "obj-73", 4 ]
				}

			}
, 			{
				"patchline" : 				{
					"destination" : [ "obj-122", 0 ],
					"midpoints" : [ 1642.5, 234.0, 1149.0, 234.0, 1149.0, 276.0, 1089.0, 276.0, 1089.0, 294.0, 1068.980968877582427, 294.0 ],
					"source" : [ "obj-73", 5 ]
				}

			}
, 			{
				"patchline" : 				{
					"destination" : [ "obj-123", 0 ],
					"midpoints" : [ 1621.5, 234.0, 993.0, 234.0, 993.0, 273.0, 1006.930748045444489, 273.0 ],
					"source" : [ "obj-73", 3 ]
				}

			}
, 			{
				"patchline" : 				{
					"destination" : [ "obj-133", 0 ],
					"midpoints" : [ 1600.5, 234.0, 987.0, 234.0, 987.0, 273.0, 945.487368196560737, 273.0 ],
					"source" : [ "obj-73", 1 ]
				}

			}
, 			{
				"patchline" : 				{
					"destination" : [ "obj-136", 0 ],
					"midpoints" : [ 1611.0, 234.0, 987.0, 234.0, 987.0, 276.0, 921.0, 276.0, 921.0, 300.0, 904.433766734037818, 300.0 ],
					"source" : [ "obj-73", 2 ]
				}

			}
, 			{
				"patchline" : 				{
					"destination" : [ "obj-137", 0 ],
					"midpoints" : [ 1590.0, 234.0, 822.0, 234.0, 822.0, 276.0, 846.194936752319336, 276.0 ],
					"source" : [ "obj-73", 0 ]
				}

			}
, 			{
				"patchline" : 				{
					"destination" : [ "obj-68", 1 ],
					"midpoints" : [ 1716.0, 156.0, 1749.0, 156.0, 1749.0, 105.0, 1809.0, 105.0 ],
					"source" : [ "obj-73", 12 ]
				}

			}
, 			{
				"patchline" : 				{
					"destination" : [ "obj-69", 0 ],
					"midpoints" : [ 1695.0, 279.0, 1476.0, 279.0, 1476.0, 285.0, 1386.711071961886546, 285.0 ],
					"source" : [ "obj-73", 10 ]
				}

			}
, 			{
				"patchline" : 				{
					"destination" : [ "obj-70", 0 ],
					"midpoints" : [ 1684.5, 237.0, 1311.0, 237.0, 1311.0, 279.0, 1324.500356674194336, 279.0 ],
					"source" : [ "obj-73", 9 ]
				}

			}
, 			{
				"patchline" : 				{
					"destination" : [ "obj-71", 1 ],
					"midpoints" : [ 1726.5, 156.0, 1749.0, 156.0, 1749.0, 147.0, 1809.0, 147.0 ],
					"source" : [ "obj-73", 13 ]
				}

			}
, 			{
				"patchline" : 				{
					"destination" : [ "obj-82", 0 ],
					"midpoints" : [ 1705.5, 279.0, 1430.564527000751468, 279.0 ],
					"source" : [ "obj-73", 11 ]
				}

			}
, 			{
				"patchline" : 				{
					"destination" : [ "obj-20", 0 ],
					"midpoints" : [ 1191.5, 555.0, 1191.5, 555.0 ],
					"source" : [ "obj-74", 0 ]
				}

			}
, 			{
				"patchline" : 				{
					"destination" : [ "obj-29", 0 ],
					"midpoints" : [ 1367.5, 555.0, 1367.5, 555.0 ],
					"source" : [ "obj-75", 0 ]
				}

			}
, 			{
				"patchline" : 				{
					"destination" : [ "obj-40", 0 ],
					"source" : [ "obj-76", 0 ]
				}

			}
, 			{
				"patchline" : 				{
					"destination" : [ "obj-36", 0 ],
					"source" : [ "obj-77", 0 ]
				}

			}
, 			{
				"patchline" : 				{
					"destination" : [ "obj-31", 0 ],
					"source" : [ "obj-78", 0 ]
				}

			}
, 			{
				"patchline" : 				{
					"destination" : [ "obj-11", 0 ],
					"source" : [ "obj-79", 0 ]
				}

			}
, 			{
				"patchline" : 				{
					"destination" : [ "obj-44", 0 ],
					"source" : [ "obj-80", 0 ]
				}

			}
, 			{
				"patchline" : 				{
					"destination" : [ "obj-47", 0 ],
					"source" : [ "obj-81", 0 ]
				}

			}
, 			{
				"patchline" : 				{
					"destination" : [ "obj-61", 0 ],
					"midpoints" : [ 1430.564527000751468, 516.0, 1344.0, 516.0, 1344.0, 717.0, 1347.0, 717.0, 1347.0, 765.0, 1281.0, 765.0, 1281.0, 873.0, 1221.0, 873.0, 1221.0, 867.0, 1206.946956394865083, 867.0 ],
					"order" : 3,
					"source" : [ "obj-82", 0 ]
				}

			}
, 			{
				"patchline" : 				{
					"destination" : [ "obj-72", 10 ],
					"midpoints" : [ 1430.564527000751468, 420.0, 1720.5, 420.0 ],
					"order" : 0,
					"source" : [ "obj-82", 0 ]
				}

			}
, 			{
				"patchline" : 				{
					"destination" : [ "obj-73", 11 ],
					"midpoints" : [ 1430.564527000751468, 348.0, 1482.0, 348.0, 1482.0, 117.0, 1705.5, 117.0 ],
					"order" : 1,
					"source" : [ "obj-82", 0 ]
				}

			}
, 			{
				"patchline" : 				{
					"destination" : [ "obj-80", 0 ],
					"midpoints" : [ 1430.564527000751468, 516.0, 1527.0, 516.0, 1527.0, 765.0, 1477.132825732721585, 765.0 ],
					"order" : 2,
					"source" : [ "obj-82", 0 ]
				}

			}
, 			{
				"patchline" : 				{
					"destination" : [ "obj-50", 0 ],
					"source" : [ "obj-83", 0 ]
				}

			}
, 			{
				"patchline" : 				{
					"destination" : [ "obj-53", 0 ],
					"source" : [ "obj-84", 0 ]
				}

			}
, 			{
				"patchline" : 				{
					"destination" : [ "obj-14", 0 ],
					"midpoints" : [ 831.41566985969348, 588.0, 831.552878739434618, 588.0 ],
					"source" : [ "obj-9", 0 ]
				}

			}
 ],
		"boxgroups" : [ 			{
				"boxes" : [ "obj-61", "obj-63" ]
			}
, 			{
				"boxes" : [ "obj-1", "obj-4" ]
			}
, 			{
				"boxes" : [ "obj-7", "obj-8" ]
			}
 ],
		"styles" : [ 			{
				"name" : "AudioStatus_Menu",
				"default" : 				{
					"bgfillcolor" : 					{
						"type" : "color",
						"color" : [ 0.294118, 0.313726, 0.337255, 1 ],
						"color1" : [ 0.454902, 0.462745, 0.482353, 0.0 ],
						"color2" : [ 0.290196, 0.309804, 0.301961, 1.0 ],
						"angle" : 270.0,
						"proportion" : 0.39,
						"autogradient" : 0
					}

				}
,
				"parentstyle" : "",
				"multi" : 0
			}
 ]
	}

}
