{
	"patcher" : 	{
		"fileversion" : 1,
		"appversion" : 		{
			"major" : 8,
			"minor" : 1,
			"revision" : 1,
			"architecture" : "x64",
			"modernui" : 1
		}
,
		"classnamespace" : "box",
		"rect" : [ 34.0, 59.0, 1612.0, 957.0 ],
		"bglocked" : 0,
		"openinpresentation" : 0,
		"default_fontsize" : 12.0,
		"default_fontface" : 0,
		"default_fontname" : "Arial",
		"gridonopen" : 1,
		"gridsize" : [ 15.0, 15.0 ],
		"gridsnaponopen" : 1,
		"objectsnaponopen" : 1,
		"statusbarvisible" : 2,
		"toolbarvisible" : 1,
		"lefttoolbarpinned" : 0,
		"toptoolbarpinned" : 0,
		"righttoolbarpinned" : 0,
		"bottomtoolbarpinned" : 0,
		"toolbars_unpinned_last_save" : 0,
		"tallnewobj" : 0,
		"boxanimatetime" : 200,
		"enablehscroll" : 1,
		"enablevscroll" : 1,
		"devicewidth" : 0.0,
		"description" : "",
		"digest" : "",
		"tags" : "abstraction",
		"style" : "",
		"subpatcher_template" : "",
		"boxes" : [ 			{
				"box" : 				{
					"fontface" : 0,
					"fontsize" : 12.0,
					"id" : "obj-6",
					"linecount" : 12,
					"maxclass" : "o.compose",
					"numinlets" : 2,
					"numoutlets" : 1,
					"outlettype" : [ "" ],
					"patching_rect" : [ 381.970793610926648, 342.426003065734903, 335.0, 174.0 ],
					"saved_bundle_data" : [ 35, 98, 117, 110, 100, 108, 101, 0, 0, 0, 0, 0, 0, 0, 0, 0, 0, 0, 0, 32, 47, 116, 114, 97, 99, 107, 47, 101, 110, 99, 47, 49, 47, 108, 101, 100, 47, 99, 111, 108, 111, 114, 0, 0, 44, 105, 0, 0, 0, 0, 0, 6, 0, 0, 0, 32, 47, 116, 114, 97, 99, 107, 47, 101, 110, 99, 47, 50, 47, 108, 101, 100, 47, 99, 111, 108, 111, 114, 0, 0, 44, 105, 0, 0, 0, 0, 0, 6, 0, 0, 0, 32, 47, 116, 114, 97, 99, 107, 47, 101, 110, 99, 47, 51, 47, 108, 101, 100, 47, 99, 111, 108, 111, 114, 0, 0, 44, 105, 0, 0, 0, 0, 0, 6, 0, 0, 0, 32, 47, 116, 114, 97, 99, 107, 47, 101, 110, 99, 47, 52, 47, 108, 101, 100, 47, 99, 111, 108, 111, 114, 0, 0, 44, 105, 0, 0, 0, 0, 0, 6, 0, 0, 0, 32, 47, 116, 114, 97, 99, 107, 47, 101, 110, 99, 47, 53, 47, 108, 101, 100, 47, 99, 111, 108, 111, 114, 0, 0, 44, 105, 0, 0, 0, 0, 0, 6, 0, 0, 0, 32, 47, 116, 114, 97, 99, 107, 47, 101, 110, 99, 47, 54, 47, 108, 101, 100, 47, 99, 111, 108, 111, 114, 0, 0, 44, 105, 0, 0, 0, 0, 0, 6, 0, 0, 0, 36, 47, 116, 114, 97, 99, 107, 47, 101, 110, 99, 47, 49, 47, 108, 101, 100, 47, 112, 97, 116, 116, 101, 114, 110, 0, 0, 0, 0, 44, 105, 0, 0, 0, 0, 0, 3, 0, 0, 0, 36, 47, 116, 114, 97, 99, 107, 47, 101, 110, 99, 47, 50, 47, 108, 101, 100, 47, 112, 97, 116, 116, 101, 114, 110, 0, 0, 0, 0, 44, 105, 0, 0, 0, 0, 0, 2, 0, 0, 0, 36, 47, 116, 114, 97, 99, 107, 47, 101, 110, 99, 47, 51, 47, 108, 101, 100, 47, 112, 97, 116, 116, 101, 114, 110, 0, 0, 0, 0, 44, 105, 0, 0, 0, 0, 0, 2, 0, 0, 0, 36, 47, 116, 114, 97, 99, 107, 47, 101, 110, 99, 47, 52, 47, 108, 101, 100, 47, 112, 97, 116, 116, 101, 114, 110, 0, 0, 0, 0, 44, 105, 0, 0, 0, 0, 0, 3, 0, 0, 0, 36, 47, 116, 114, 97, 99, 107, 47, 101, 110, 99, 47, 53, 47, 108, 101, 100, 47, 112, 97, 116, 116, 101, 114, 110, 0, 0, 0, 0, 44, 105, 0, 0, 0, 0, 0, 2, 0, 0, 0, 36, 47, 116, 114, 97, 99, 107, 47, 101, 110, 99, 47, 54, 47, 108, 101, 100, 47, 112, 97, 116, 116, 101, 114, 110, 0, 0, 0, 0, 44, 105, 0, 0, 0, 0, 0, 2 ],
					"saved_bundle_length" : 472,
					"text" : "/track/enc/1/led/color : 6,\n/track/enc/2/led/color : 6,\n/track/enc/3/led/color : 6,\n/track/enc/4/led/color : 6,\n/track/enc/5/led/color : 6,\n/track/enc/6/led/color : 6,\n/track/enc/1/led/pattern : 3,\n/track/enc/2/led/pattern : 2,\n/track/enc/3/led/pattern : 2,\n/track/enc/4/led/pattern : 3,\n/track/enc/5/led/pattern : 2,\n/track/enc/6/led/pattern : 2"
				}

			}
, 			{
				"box" : 				{
					"id" : "obj-37",
					"maxclass" : "newobj",
					"numinlets" : 1,
					"numoutlets" : 1,
					"outlettype" : [ "" ],
					"patching_rect" : [ 102.0, 191.0, 91.0, 22.0 ],
					"text" : "if $i1 < 1 then 0"
				}

			}
, 			{
				"box" : 				{
					"id" : "obj-19",
					"maxclass" : "newobj",
					"numinlets" : 1,
					"numoutlets" : 1,
					"outlettype" : [ "bang" ],
					"patching_rect" : [ 347.5, 257.936131027370493, 22.0, 22.0 ],
					"text" : "t b"
				}

			}
, 			{
				"box" : 				{
					"id" : "obj-18",
					"maxclass" : "newobj",
					"numinlets" : 1,
					"numoutlets" : 1,
					"outlettype" : [ "" ],
					"patching_rect" : [ 284.5, 378.67687174382786, 53.0, 22.0 ],
					"text" : "o.collect"
				}

			}
, 			{
				"box" : 				{
					"id" : "obj-16",
					"maxclass" : "newobj",
					"numinlets" : 1,
					"numoutlets" : 1,
					"outlettype" : [ "bang" ],
					"patching_rect" : [ 421.0, 90.0, 22.0, 22.0 ],
					"text" : "t b"
				}

			}
, 			{
				"box" : 				{
					"fontface" : 0,
					"fontsize" : 12.0,
					"id" : "obj-17",
					"maxclass" : "o.compose",
					"numinlets" : 2,
					"numoutlets" : 1,
					"outlettype" : [ "" ],
					"patching_rect" : [ 421.0, 118.0, 150.0, 24.0 ],
					"saved_bundle_data" : [ 35, 98, 117, 110, 100, 108, 101, 0, 0, 0, 0, 0, 0, 0, 0, 0, 0, 0, 0, 24, 47, 116, 114, 97, 99, 107, 47, 97, 99, 116, 105, 118, 101, 0, 0, 0, 44, 105, 0, 0, 0, 0, 0, 1 ],
					"saved_bundle_length" : 44,
					"text" : "/track/active : 1"
				}

			}
, 			{
				"box" : 				{
					"id" : "obj-12",
					"maxclass" : "message",
					"numinlets" : 2,
					"numoutlets" : 1,
					"outlettype" : [ "" ],
					"patching_rect" : [ 160.222222149372101, 346.280968275695841, 29.5, 22.0 ],
					"text" : "1"
				}

			}
, 			{
				"box" : 				{
					"id" : "obj-13",
					"maxclass" : "message",
					"numinlets" : 2,
					"numoutlets" : 1,
					"outlettype" : [ "" ],
					"patching_rect" : [ 192.222222149372101, 346.280968275695841, 29.5, 22.0 ],
					"text" : "0"
				}

			}
, 			{
				"box" : 				{
					"id" : "obj-14",
					"maxclass" : "gswitch2",
					"numinlets" : 2,
					"numoutlets" : 2,
					"outlettype" : [ "", "" ],
					"parameter_enable" : 0,
					"patching_rect" : [ 177.252257999999983, 378.67687174382786, 39.0, 32.0 ]
				}

			}
, 			{
				"box" : 				{
					"id" : "obj-15",
					"maxclass" : "gswitch2",
					"numinlets" : 2,
					"numoutlets" : 2,
					"outlettype" : [ "", "" ],
					"parameter_enable" : 0,
					"patching_rect" : [ 221.5, 378.67687174382786, 39.0, 32.0 ]
				}

			}
, 			{
				"box" : 				{
					"id" : "obj-11",
					"maxclass" : "newobj",
					"numinlets" : 1,
					"numoutlets" : 1,
					"outlettype" : [ "bang" ],
					"patching_rect" : [ 223.5, 257.936131027370493, 22.0, 22.0 ],
					"text" : "t b"
				}

			}
, 			{
				"box" : 				{
					"id" : "obj-10",
					"maxclass" : "newobj",
					"numinlets" : 1,
					"numoutlets" : 2,
					"outlettype" : [ "FullPacket", "FullPacket" ],
					"patching_rect" : [ 223.5, 233.936131027370493, 143.0, 22.0 ],
					"text" : "o.if /track/bankcount == 1"
				}

			}
, 			{
				"box" : 				{
					"id" : "obj-40",
					"maxclass" : "newobj",
					"numinlets" : 1,
					"numoutlets" : 1,
					"outlettype" : [ "bang" ],
					"patching_rect" : [ 102.0, 114.0, 22.0, 22.0 ],
					"text" : "t b"
				}

			}
, 			{
				"box" : 				{
					"id" : "obj-39",
					"maxclass" : "newobj",
					"numinlets" : 2,
					"numoutlets" : 1,
					"outlettype" : [ "FullPacket" ],
					"patching_rect" : [ 223.5, 90.0, 35.0, 22.0 ],
					"text" : "o.var"
				}

			}
, 			{
				"box" : 				{
					"id" : "obj-36",
					"maxclass" : "newobj",
					"numinlets" : 1,
					"numoutlets" : 2,
					"outlettype" : [ "", "FullPacket" ],
					"patching_rect" : [ 223.5, 121.0, 141.0, 22.0 ],
					"text" : "o.select /track/bankcount"
				}

			}
, 			{
				"box" : 				{
					"id" : "obj-35",
					"maxclass" : "gswitch2",
					"numinlets" : 2,
					"numoutlets" : 2,
					"outlettype" : [ "", "" ],
					"parameter_enable" : 0,
					"patching_rect" : [ 203.5, 176.0, 39.0, 32.0 ]
				}

			}
, 			{
				"box" : 				{
					"id" : "obj-8",
					"maxclass" : "newobj",
					"numinlets" : 1,
					"numoutlets" : 2,
					"outlettype" : [ "", "FullPacket" ],
					"patching_rect" : [ 102.0, 90.0, 113.0, 22.0 ],
					"text" : "o.route /track/active"
				}

			}
, 			{
				"box" : 				{
					"comment" : "OSC In",
					"id" : "obj-91",
					"index" : 1,
					"maxclass" : "inlet",
					"numinlets" : 0,
					"numoutlets" : 1,
					"outlettype" : [ "FullPacket" ],
					"patching_rect" : [ 101.77154207344438, 14.000003752086272, 30.0, 30.0 ]
				}

			}
, 			{
				"box" : 				{
					"comment" : "Control In",
					"id" : "obj-92",
					"index" : 2,
					"maxclass" : "inlet",
					"numinlets" : 0,
					"numoutlets" : 1,
					"outlettype" : [ "FullPacket" ],
					"patching_rect" : [ 421.0, 14.000003752086272, 30.0, 30.0 ]
				}

			}
, 			{
				"box" : 				{
					"comment" : "OSC Out",
					"id" : "obj-93",
					"index" : 1,
					"maxclass" : "outlet",
					"numinlets" : 1,
					"numoutlets" : 0,
					"patching_rect" : [ 197.252257999999983, 588.426005752086212, 30.0, 30.0 ]
				}

			}
, 			{
				"box" : 				{
					"comment" : "Control Out",
					"id" : "obj-94",
					"index" : 2,
					"maxclass" : "outlet",
					"numinlets" : 1,
					"numoutlets" : 0,
					"patching_rect" : [ 241.500058073444279, 588.426005752086212, 30.0, 30.0 ]
				}

			}
 ],
		"lines" : [ 			{
				"patchline" : 				{
					"destination" : [ "obj-11", 0 ],
					"midpoints" : [ 233.0, 258.0, 233.0, 258.0 ],
					"source" : [ "obj-10", 0 ]
				}

			}
, 			{
				"patchline" : 				{
					"destination" : [ "obj-19", 0 ],
					"midpoints" : [ 357.0, 258.0, 357.0, 258.0 ],
					"source" : [ "obj-10", 1 ]
				}

			}
, 			{
				"patchline" : 				{
					"destination" : [ "obj-12", 0 ],
					"midpoints" : [ 233.0, 333.0, 169.722222149372101, 333.0 ],
					"order" : 2,
					"source" : [ "obj-11", 0 ]
				}

			}
, 			{
				"patchline" : 				{
					"destination" : [ "obj-18", 0 ],
					"midpoints" : [ 233.0, 363.0, 294.0, 363.0 ],
					"order" : 1,
					"source" : [ "obj-11", 0 ]
				}

			}
, 			{
				"patchline" : 				{
					"destination" : [ "obj-6", 0 ],
					"midpoints" : [ 233.0, 327.0, 391.470793610926648, 327.0 ],
					"order" : 0,
					"source" : [ "obj-11", 0 ]
				}

			}
, 			{
				"patchline" : 				{
					"destination" : [ "obj-14", 0 ],
					"midpoints" : [ 169.722222149372101, 369.0, 186.752257999999983, 369.0 ],
					"order" : 1,
					"source" : [ "obj-12", 0 ]
				}

			}
, 			{
				"patchline" : 				{
					"destination" : [ "obj-15", 0 ],
					"midpoints" : [ 169.722222149372101, 369.0, 231.0, 369.0 ],
					"order" : 0,
					"source" : [ "obj-12", 0 ]
				}

			}
, 			{
				"patchline" : 				{
					"destination" : [ "obj-14", 0 ],
					"midpoints" : [ 201.722222149372101, 369.0, 186.752257999999983, 369.0 ],
					"order" : 1,
					"source" : [ "obj-13", 0 ]
				}

			}
, 			{
				"patchline" : 				{
					"destination" : [ "obj-15", 0 ],
					"midpoints" : [ 201.722222149372101, 369.0, 231.0, 369.0 ],
					"order" : 0,
					"source" : [ "obj-13", 0 ]
				}

			}
, 			{
				"patchline" : 				{
					"destination" : [ "obj-93", 0 ],
					"midpoints" : [ 206.752257999999983, 411.0, 206.752257999999983, 411.0 ],
					"source" : [ "obj-14", 1 ]
				}

			}
, 			{
				"patchline" : 				{
					"destination" : [ "obj-94", 0 ],
					"midpoints" : [ 251.0, 411.0, 251.000058073444279, 411.0 ],
					"source" : [ "obj-15", 1 ]
				}

			}
, 			{
				"patchline" : 				{
					"destination" : [ "obj-17", 0 ],
					"midpoints" : [ 430.5, 114.0, 430.5, 114.0 ],
					"source" : [ "obj-16", 0 ]
				}

			}
, 			{
				"patchline" : 				{
					"destination" : [ "obj-93", 0 ],
					"midpoints" : [ 430.5, 327.0, 270.0, 327.0, 270.0, 573.0, 206.752257999999983, 573.0 ],
					"source" : [ "obj-17", 0 ]
				}

			}
, 			{
				"patchline" : 				{
					"destination" : [ "obj-93", 0 ],
					"midpoints" : [ 294.0, 573.0, 206.752257999999983, 573.0 ],
					"source" : [ "obj-18", 0 ]
				}

			}
, 			{
				"patchline" : 				{
					"destination" : [ "obj-13", 0 ],
					"midpoints" : [ 357.0, 333.0, 201.722222149372101, 333.0 ],
					"source" : [ "obj-19", 0 ]
				}

			}
, 			{
				"patchline" : 				{
					"destination" : [ "obj-10", 0 ],
					"midpoints" : [ 233.0, 210.0, 233.0, 210.0 ],
					"source" : [ "obj-35", 1 ]
				}

			}
, 			{
				"patchline" : 				{
					"destination" : [ "obj-35", 1 ],
					"midpoints" : [ 233.0, 144.0, 233.0, 144.0 ],
					"source" : [ "obj-36", 0 ]
				}

			}
, 			{
				"patchline" : 				{
					"destination" : [ "obj-14", 0 ],
					"midpoints" : [ 111.5, 372.0, 186.752257999999983, 372.0 ],
					"order" : 1,
					"source" : [ "obj-37", 0 ]
				}

			}
, 			{
				"patchline" : 				{
					"destination" : [ "obj-15", 0 ],
					"midpoints" : [ 111.5, 333.0, 231.0, 333.0 ],
					"order" : 0,
					"source" : [ "obj-37", 0 ]
				}

			}
, 			{
				"patchline" : 				{
					"destination" : [ "obj-36", 0 ],
					"midpoints" : [ 233.0, 114.0, 233.0, 114.0 ],
					"source" : [ "obj-39", 0 ]
				}

			}
, 			{
				"patchline" : 				{
					"destination" : [ "obj-39", 0 ],
					"midpoints" : [ 111.5, 138.0, 210.0, 138.0, 210.0, 114.0, 219.0, 114.0, 219.0, 87.0, 233.0, 87.0 ],
					"source" : [ "obj-40", 0 ]
				}

			}
, 			{
				"patchline" : 				{
					"destination" : [ "obj-93", 0 ],
					"midpoints" : [ 391.470793610926648, 573.0, 206.752257999999983, 573.0 ],
					"source" : [ "obj-6", 0 ]
				}

			}
, 			{
				"patchline" : 				{
					"destination" : [ "obj-35", 0 ],
					"midpoints" : [ 111.5, 114.0, 99.0, 114.0, 99.0, 162.0, 213.0, 162.0 ],
					"order" : 0,
					"source" : [ "obj-8", 0 ]
				}

			}
, 			{
				"patchline" : 				{
					"destination" : [ "obj-37", 0 ],
					"midpoints" : [ 111.5, 114.0, 99.0, 114.0, 99.0, 177.0, 111.5, 177.0 ],
					"order" : 1,
					"source" : [ "obj-8", 0 ]
				}

			}
, 			{
				"patchline" : 				{
					"destination" : [ "obj-40", 0 ],
					"midpoints" : [ 111.5, 114.0, 111.5, 114.0 ],
					"order" : 2,
					"source" : [ "obj-8", 0 ]
				}

			}
, 			{
				"patchline" : 				{
					"destination" : [ "obj-15", 1 ],
					"midpoints" : [ 111.27154207344438, 75.0, 87.0, 75.0, 87.0, 333.0, 251.0, 333.0 ],
					"order" : 0,
					"source" : [ "obj-91", 0 ]
				}

			}
, 			{
				"patchline" : 				{
					"destination" : [ "obj-39", 1 ],
					"midpoints" : [ 111.27154207344438, 75.0, 249.0, 75.0 ],
					"order" : 1,
					"source" : [ "obj-91", 0 ]
				}

			}
, 			{
				"patchline" : 				{
					"destination" : [ "obj-39", 0 ],
					"midpoints" : [ 111.27154207344438, 75.0, 233.0, 75.0 ],
					"order" : 2,
					"source" : [ "obj-91", 0 ]
				}

			}
, 			{
				"patchline" : 				{
					"destination" : [ "obj-8", 0 ],
					"midpoints" : [ 111.27154207344438, 45.0, 111.5, 45.0 ],
					"order" : 3,
					"source" : [ "obj-91", 0 ]
				}

			}
, 			{
				"patchline" : 				{
					"destination" : [ "obj-14", 1 ],
					"midpoints" : [ 430.5, 75.0, 381.0, 75.0, 381.0, 327.0, 231.0, 327.0, 231.0, 372.0, 206.752257999999983, 372.0 ],
					"order" : 2,
					"source" : [ "obj-92", 0 ]
				}

			}
, 			{
				"patchline" : 				{
					"destination" : [ "obj-16", 0 ],
					"midpoints" : [ 430.5, 45.0, 430.5, 45.0 ],
					"order" : 0,
					"source" : [ "obj-92", 0 ]
				}

			}
, 			{
				"patchline" : 				{
					"destination" : [ "obj-18", 0 ],
					"midpoints" : [ 430.5, 75.0, 381.0, 75.0, 381.0, 327.0, 294.0, 327.0 ],
					"order" : 1,
					"source" : [ "obj-92", 0 ]
				}

			}
 ],
		"styles" : [ 			{
				"name" : "AudioStatus_Menu",
				"default" : 				{
					"bgfillcolor" : 					{
						"type" : "color",
						"color" : [ 0.294118, 0.313726, 0.337255, 1 ],
						"color1" : [ 0.454902, 0.462745, 0.482353, 0.0 ],
						"color2" : [ 0.290196, 0.309804, 0.301961, 1.0 ],
						"angle" : 270.0,
						"proportion" : 0.39,
						"autogradient" : 0
					}

				}
,
				"parentstyle" : "",
				"multi" : 0
			}
 ]
	}

}
